<svg width="121" height="41" viewBox="0 0 121 41" fill="none" xmlns="http://www.w3.org/2000/svg">
<path d="M47.8331 13.7513C47.8331 12.5422 47.6671 11.6531 47.3352 11.0841C47.0032 10.4913 46.3394 10.195 45.3436 10.195H44.988V9.12805H54.6613C59.4505 9.12805 63.0899 10.1475 65.5793 12.1865C68.0925 14.2018 69.3491 17.0469 69.3491 20.7218C69.3491 23.069 68.8156 25.1435 67.7487 26.9454C66.7055 28.7236 65.1407 30.1106 63.0543 31.1064C60.9916 32.1022 58.5022 32.6001 55.5859 32.6001H47.8331V13.7513ZM55.4793 31.1775C57.1389 31.1775 58.6089 30.7626 59.8891 29.9328C61.1931 29.103 62.2008 27.9057 62.9121 26.3409C63.647 24.7761 64.0145 22.9505 64.0145 20.8641C64.0145 18.8014 63.647 16.9995 62.9121 15.4584C62.2008 13.8936 61.1931 12.6844 59.8891 11.8309C58.5851 10.9774 57.0915 10.5506 55.4081 10.5506H55.1236C54.3412 10.5506 53.7129 10.598 53.2387 10.6929L52.4563 10.7995V30.9286L53.2387 31.0708C53.7366 31.1419 54.3649 31.1775 55.1236 31.1775H55.4793Z" fill="#848D95"/>
<path d="M75.7622 13.9647C74.9087 13.9647 74.2448 13.7039 73.7706 13.1823C73.3202 12.6607 73.0949 12.0206 73.0949 11.2619C73.0949 10.6454 73.2727 10.1594 73.6284 9.80376C74.0077 9.44812 74.4819 9.27031 75.0509 9.27031C75.9045 9.27031 76.5565 9.53111 77.0069 10.0527C77.4811 10.5743 77.7182 11.2145 77.7182 11.9731C77.7182 12.5896 77.5285 13.0756 77.1492 13.4313C76.7935 13.7869 76.3312 13.9647 75.7622 13.9647ZM73.4506 20.5084C73.4506 19.2993 73.2846 18.4102 72.9527 17.8411C72.6207 17.2484 71.9569 16.9521 70.9611 16.9521H70.6055V15.8851H74.8731C75.7266 15.8851 76.3786 16.0274 76.8291 16.3119C77.2796 16.5964 77.5997 17.0706 77.7893 17.7345C77.979 18.3746 78.0738 19.2993 78.0738 20.5084V32.6001H73.4506V20.5084Z" fill="#848D95"/>
<path d="M87.1995 32.9557C85.2791 32.9557 83.7854 32.5289 82.7185 31.6754C81.6753 30.7982 81.1537 29.6246 81.1537 28.1546C81.1537 26.9691 81.4264 25.9852 81.9717 25.2028C82.5407 24.4204 83.5246 23.8277 84.9234 23.4246C86.3223 23.0216 88.2664 22.8201 90.7559 22.8201H91.2893C91.2893 20.7574 91.0048 19.2993 90.4358 18.4457C89.8668 17.5685 89.0251 17.1299 87.9108 17.1299C86.9861 17.1299 86.2274 17.3551 85.6347 17.8056C85.042 18.2561 84.6152 19.0977 84.3544 20.3306H82.3984C82.3984 19.5245 82.4458 18.8369 82.5407 18.2679C82.6592 17.6989 82.9082 17.201 83.2875 16.7742C84.0225 15.9444 85.8007 15.5295 88.6221 15.5295C90.993 15.5295 92.7949 16.1578 94.0277 17.4144C95.2843 18.6473 95.9126 20.5084 95.9126 22.9979V32.6001H92.8897L91.645 30.9997H91.4672C91.2538 31.3316 90.9219 31.6635 90.4714 31.9955C89.6653 32.6356 88.5746 32.9557 87.1995 32.9557ZM88.2664 31.1775C88.7643 31.1775 89.1911 31.0827 89.5467 30.893C89.9024 30.6796 90.2461 30.3951 90.5781 30.0395C90.8863 29.7075 91.1234 29.3163 91.2893 28.8659V24.4204H90.7559C89.0725 24.4204 87.8515 24.7286 87.0928 25.3451C86.3341 25.9378 85.9548 26.8743 85.9548 28.1546C85.9548 29.1267 86.1563 29.8735 86.5594 30.3951C86.9624 30.9167 87.5314 31.1775 88.2664 31.1775Z" fill="#848D95"/>
<path d="M111.315 16.2408C111.742 16.549 112.05 16.8928 112.24 17.2721C112.429 17.6278 112.524 17.8174 112.524 17.8411L110.71 19.2281C110.544 19.0147 110.331 18.7895 110.07 18.5524C109.549 18.0782 108.944 17.8411 108.257 17.8411C106.881 17.8411 105.826 18.2086 105.091 18.9436L105.162 19.4771C105.21 19.9038 105.234 20.295 105.234 20.6507V32.6001H100.61V20.5084C100.61 19.2993 100.444 18.4102 100.112 17.8411C99.8042 17.2484 99.1522 16.9521 98.1565 16.9521H97.8008V15.8851H101.322C102.128 15.8851 102.756 15.9918 103.206 16.2052C103.681 16.3949 104.048 16.7268 104.309 17.201C105.589 16.0867 107.083 15.5295 108.79 15.5295C109.809 15.5295 110.651 15.7666 111.315 16.2408Z" fill="#848D95"/>
<path d="M117.751 13.9647C116.897 13.9647 116.234 13.7039 115.759 13.1823C115.309 12.6607 115.084 12.0206 115.084 11.2619C115.084 10.6454 115.261 10.1594 115.617 9.80376C115.996 9.44812 116.471 9.27031 117.04 9.27031C117.893 9.27031 118.545 9.53111 118.996 10.0527C119.47 10.5743 119.707 11.2145 119.707 11.9731C119.707 12.5896 119.517 13.0756 119.138 13.4313C118.782 13.7869 118.32 13.9647 117.751 13.9647ZM115.439 20.5084C115.439 19.2993 115.273 18.4102 114.941 17.8411C114.609 17.2484 113.946 16.9521 112.95 16.9521H112.594V15.8851H116.862C117.715 15.8851 118.367 16.0274 118.818 16.3119C119.268 16.5964 119.588 17.0706 119.778 17.7345C119.968 18.3746 120.063 19.2993 120.063 20.5084V32.6001H115.439V20.5084Z" fill="#848D95"/>
<path fill-rule="evenodd" clip-rule="evenodd" d="M35.5636 4.44546H31.1182V35.5636H6.66818C5.44568 35.5636 4.44546 34.5634 4.44546 33.3409C4.44546 32.1184 5.44568 31.1182 6.66818 31.1182H26.6727V0H6.66818C2.97846 0 0 2.97846 0 6.66818V33.3409C0 37.0306 2.97846 40.0091 6.66818 40.0091H35.5636V4.44546ZM4.96248 6.05083C5.24514 6.51782 5.38648 7.24751 5.38648 8.23988V23.7092H11.9887C14.4721 23.7092 16.5921 23.3005 18.3486 22.4833C20.1253 21.6661 21.4579 20.5277 22.3463 19.0684C23.2548 17.5896 23.7091 15.887 23.7091 13.9606C23.7091 10.9446 22.639 8.60958 20.4989 6.95564C18.3789 5.28223 15.2797 4.44552 11.2013 4.44552H2.96365V5.32114H3.2665C4.11449 5.32114 4.67982 5.56437 4.96248 6.05083ZM15.6532 21.5201C14.5629 22.2012 13.3111 22.5417 11.8978 22.5417H11.595C10.9489 22.5417 10.4138 22.5125 9.98985 22.4541L9.32357 22.3374V5.81733L9.98985 5.72977C10.3937 5.65193 10.9287 5.61302 11.595 5.61302H11.8373C13.2708 5.61302 14.5427 5.96327 15.6532 6.66376C16.7637 7.36426 17.6218 8.35663 18.2275 9.64087C18.8534 10.9057 19.1663 12.3845 19.1663 14.0773C19.1663 15.7897 18.8534 17.288 18.2275 18.5722C17.6218 19.8564 16.7637 20.8391 15.6532 21.5201Z" fill="#848D95"/>
</svg>
