<svg width="267" height="27" viewBox="0 0 267 27" fill="none" xmlns="http://www.w3.org/2000/svg">
<path d="M39.878 20.162C39.122 20.162 38.444 20.036 37.844 19.784C37.244 19.52 36.77 19.16 36.422 18.704C36.074 18.236 35.882 17.702 35.846 17.102H37.538C37.586 17.594 37.814 17.996 38.222 18.308C38.642 18.62 39.188 18.776 39.86 18.776C40.484 18.776 40.976 18.638 41.336 18.362C41.696 18.086 41.876 17.738 41.876 17.318C41.876 16.886 41.684 16.568 41.3 16.364C40.916 16.148 40.322 15.938 39.518 15.734C38.786 15.542 38.186 15.35 37.718 15.158C37.262 14.954 36.866 14.66 36.53 14.276C36.206 13.88 36.044 13.364 36.044 12.728C36.044 12.224 36.194 11.762 36.494 11.342C36.794 10.922 37.22 10.592 37.772 10.352C38.324 10.1 38.954 9.974 39.662 9.974C40.754 9.974 41.636 10.25 42.308 10.802C42.98 11.354 43.34 12.11 43.388 13.07H41.75C41.714 12.554 41.504 12.14 41.12 11.828C40.748 11.516 40.244 11.36 39.608 11.36C39.02 11.36 38.552 11.486 38.204 11.738C37.856 11.99 37.682 12.32 37.682 12.728C37.682 13.052 37.784 13.322 37.988 13.538C38.204 13.742 38.468 13.91 38.78 14.042C39.104 14.162 39.548 14.3 40.112 14.456C40.82 14.648 41.396 14.84 41.84 15.032C42.284 15.212 42.662 15.488 42.974 15.86C43.298 16.232 43.466 16.718 43.478 17.318C43.478 17.858 43.328 18.344 43.028 18.776C42.728 19.208 42.302 19.55 41.75 19.802C41.21 20.042 40.586 20.162 39.878 20.162ZM54.5383 10.136V20H52.9003V18.542C52.5883 19.046 52.1503 19.442 51.5863 19.73C51.0343 20.006 50.4223 20.144 49.7503 20.144C48.9823 20.144 48.2923 19.988 47.6803 19.676C47.0683 19.352 46.5823 18.872 46.2223 18.236C45.8743 17.6 45.7003 16.826 45.7003 15.914V10.136H47.3203V15.698C47.3203 16.67 47.5663 17.42 48.0583 17.948C48.5503 18.464 49.2223 18.722 50.0743 18.722C50.9503 18.722 51.6403 18.452 52.1443 17.912C52.6483 17.372 52.9003 16.586 52.9003 15.554V10.136H54.5383ZM61.372 9.974C62.224 9.974 62.968 10.16 63.604 10.532C64.252 10.904 64.732 11.372 65.044 11.936V10.136H66.7V20.216C66.7 21.116 66.508 21.914 66.124 22.61C65.74 23.318 65.188 23.87 64.468 24.266C63.76 24.662 62.932 24.86 61.984 24.86C60.688 24.86 59.608 24.554 58.744 23.942C57.88 23.33 57.37 22.496 57.214 21.44H58.834C59.014 22.04 59.386 22.52 59.95 22.88C60.514 23.252 61.192 23.438 61.984 23.438C62.884 23.438 63.616 23.156 64.18 22.592C64.756 22.028 65.044 21.236 65.044 20.216V18.146C64.72 18.722 64.24 19.202 63.604 19.586C62.968 19.97 62.224 20.162 61.372 20.162C60.496 20.162 59.698 19.946 58.978 19.514C58.27 19.082 57.712 18.476 57.304 17.696C56.896 16.916 56.692 16.028 56.692 15.032C56.692 14.024 56.896 13.142 57.304 12.386C57.712 11.618 58.27 11.024 58.978 10.604C59.698 10.184 60.496 9.974 61.372 9.974ZM65.044 15.05C65.044 14.306 64.894 13.658 64.594 13.106C64.294 12.554 63.886 12.134 63.37 11.846C62.866 11.546 62.308 11.396 61.696 11.396C61.084 11.396 60.526 11.54 60.022 11.828C59.518 12.116 59.116 12.536 58.816 13.088C58.516 13.64 58.366 14.288 58.366 15.032C58.366 15.788 58.516 16.448 58.816 17.012C59.116 17.564 59.518 17.99 60.022 18.29C60.526 18.578 61.084 18.722 61.696 18.722C62.308 18.722 62.866 18.578 63.37 18.29C63.886 17.99 64.294 17.564 64.594 17.012C64.894 16.448 65.044 15.794 65.044 15.05ZM68.856 15.032C68.856 14.024 69.06 13.142 69.468 12.386C69.876 11.618 70.434 11.024 71.142 10.604C71.862 10.184 72.66 9.974 73.536 9.974C74.4 9.974 75.15 10.16 75.786 10.532C76.422 10.904 76.896 11.372 77.208 11.936V10.136H78.864V20H77.208V18.164C76.884 18.74 76.398 19.22 75.75 19.604C75.114 19.976 74.37 20.162 73.518 20.162C72.642 20.162 71.85 19.946 71.142 19.514C70.434 19.082 69.876 18.476 69.468 17.696C69.06 16.916 68.856 16.028 68.856 15.032ZM77.208 15.05C77.208 14.306 77.058 13.658 76.758 13.106C76.458 12.554 76.05 12.134 75.534 11.846C75.03 11.546 74.472 11.396 73.86 11.396C73.248 11.396 72.69 11.54 72.186 11.828C71.682 12.116 71.28 12.536 70.98 13.088C70.68 13.64 70.53 14.288 70.53 15.032C70.53 15.788 70.68 16.448 70.98 17.012C71.28 17.564 71.682 17.99 72.186 18.29C72.69 18.578 73.248 18.722 73.86 18.722C74.472 18.722 75.03 18.578 75.534 18.29C76.05 17.99 76.458 17.564 76.758 17.012C77.058 16.448 77.208 15.794 77.208 15.05ZM83.2701 11.738C83.5581 11.174 83.9661 10.736 84.4941 10.424C85.0341 10.112 85.6881 9.956 86.4561 9.956V11.648H86.0241C84.1881 11.648 83.2701 12.644 83.2701 14.636V20H81.6321V10.136H83.2701V11.738ZM91.8389 20.162C91.0829 20.162 90.4049 20.036 89.8049 19.784C89.2049 19.52 88.7309 19.16 88.3829 18.704C88.0349 18.236 87.8429 17.702 87.8069 17.102H89.4989C89.5469 17.594 89.7749 17.996 90.1829 18.308C90.6029 18.62 91.1489 18.776 91.8209 18.776C92.4449 18.776 92.9369 18.638 93.2969 18.362C93.6569 18.086 93.8369 17.738 93.8369 17.318C93.8369 16.886 93.6449 16.568 93.2609 16.364C92.8769 16.148 92.2829 15.938 91.4789 15.734C90.7469 15.542 90.1469 15.35 89.6789 15.158C89.2229 14.954 88.8269 14.66 88.4909 14.276C88.1669 13.88 88.0049 13.364 88.0049 12.728C88.0049 12.224 88.1549 11.762 88.4549 11.342C88.7549 10.922 89.1809 10.592 89.7329 10.352C90.2849 10.1 90.9149 9.974 91.6229 9.974C92.7149 9.974 93.5969 10.25 94.2689 10.802C94.9409 11.354 95.3009 12.11 95.3489 13.07H93.7109C93.6749 12.554 93.4649 12.14 93.0809 11.828C92.7089 11.516 92.2049 11.36 91.5689 11.36C90.9809 11.36 90.5129 11.486 90.1649 11.738C89.8169 11.99 89.6429 12.32 89.6429 12.728C89.6429 13.052 89.7449 13.322 89.9489 13.538C90.1649 13.742 90.4289 13.91 90.7409 14.042C91.0649 14.162 91.5089 14.3 92.0729 14.456C92.7809 14.648 93.3569 14.84 93.8009 15.032C94.2449 15.212 94.6229 15.488 94.9349 15.86C95.2589 16.232 95.4269 16.718 95.4389 17.318C95.4389 17.858 95.2889 18.344 94.9889 18.776C94.6889 19.208 94.2629 19.55 93.7109 19.802C93.1709 20.042 92.5469 20.162 91.8389 20.162ZM99.7492 11.486V17.3C99.7492 17.78 99.8512 18.122 100.055 18.326C100.259 18.518 100.613 18.614 101.117 18.614H102.323V20H100.847C99.9352 20 99.2512 19.79 98.7952 19.37C98.3392 18.95 98.1112 18.26 98.1112 17.3V11.486H96.8332V10.136H98.1112V7.652H99.7492V10.136H102.323V11.486H99.7492ZM103.696 15.032C103.696 14.024 103.9 13.142 104.308 12.386C104.716 11.618 105.274 11.024 105.982 10.604C106.702 10.184 107.5 9.974 108.376 9.974C109.24 9.974 109.99 10.16 110.626 10.532C111.262 10.904 111.736 11.372 112.048 11.936V10.136H113.704V20H112.048V18.164C111.724 18.74 111.238 19.22 110.59 19.604C109.954 19.976 109.21 20.162 108.358 20.162C107.482 20.162 106.69 19.946 105.982 19.514C105.274 19.082 104.716 18.476 104.308 17.696C103.9 16.916 103.696 16.028 103.696 15.032ZM112.048 15.05C112.048 14.306 111.898 13.658 111.598 13.106C111.298 12.554 110.89 12.134 110.374 11.846C109.87 11.546 109.312 11.396 108.7 11.396C108.088 11.396 107.53 11.54 107.026 11.828C106.522 12.116 106.12 12.536 105.82 13.088C105.52 13.64 105.37 14.288 105.37 15.032C105.37 15.788 105.52 16.448 105.82 17.012C106.12 17.564 106.522 17.99 107.026 18.29C107.53 18.578 108.088 18.722 108.7 18.722C109.312 18.722 109.87 18.578 110.374 18.29C110.89 17.99 111.298 17.564 111.598 17.012C111.898 16.448 112.048 15.794 112.048 15.05ZM118.11 11.738C118.398 11.174 118.806 10.736 119.334 10.424C119.874 10.112 120.528 9.956 121.296 9.956V11.648H120.864C119.028 11.648 118.11 12.644 118.11 14.636V20H116.472V10.136H118.11V11.738ZM125.185 11.486V17.3C125.185 17.78 125.287 18.122 125.491 18.326C125.695 18.518 126.049 18.614 126.553 18.614H127.759V20H126.283C125.371 20 124.687 19.79 124.231 19.37C123.775 18.95 123.547 18.26 123.547 17.3V11.486H122.269V10.136H123.547V7.652H125.185V10.136H127.759V11.486H125.185ZM138.491 10.136V20H136.853V18.542C136.541 19.046 136.103 19.442 135.539 19.73C134.987 20.006 134.375 20.144 133.703 20.144C132.935 20.144 132.245 19.988 131.633 19.676C131.021 19.352 130.535 18.872 130.175 18.236C129.827 17.6 129.653 16.826 129.653 15.914V10.136H131.273V15.698C131.273 16.67 131.519 17.42 132.011 17.948C132.503 18.464 133.175 18.722 134.027 18.722C134.903 18.722 135.593 18.452 136.097 17.912C136.601 17.372 136.853 16.586 136.853 15.554V10.136H138.491ZM142.895 11.954C143.219 11.39 143.699 10.922 144.335 10.55C144.983 10.166 145.733 9.974 146.585 9.974C147.461 9.974 148.253 10.184 148.961 10.604C149.681 11.024 150.245 11.618 150.653 12.386C151.061 13.142 151.265 14.024 151.265 15.032C151.265 16.028 151.061 16.916 150.653 17.696C150.245 18.476 149.681 19.082 148.961 19.514C148.253 19.946 147.461 20.162 146.585 20.162C145.745 20.162 145.001 19.976 144.353 19.604C143.717 19.22 143.231 18.746 142.895 18.182V24.68H141.257V10.136H142.895V11.954ZM149.591 15.032C149.591 14.288 149.441 13.64 149.141 13.088C148.841 12.536 148.433 12.116 147.917 11.828C147.413 11.54 146.855 11.396 146.243 11.396C145.643 11.396 145.085 11.546 144.569 11.846C144.065 12.134 143.657 12.56 143.345 13.124C143.045 13.676 142.895 14.318 142.895 15.05C142.895 15.794 143.045 16.448 143.345 17.012C143.657 17.564 144.065 17.99 144.569 18.29C145.085 18.578 145.643 18.722 146.243 18.722C146.855 18.722 147.413 18.578 147.917 18.29C148.433 17.99 148.841 17.564 149.141 17.012C149.441 16.448 149.591 15.788 149.591 15.032ZM162.421 8.462C163.753 8.462 164.911 8.714 165.895 9.218C166.879 9.722 167.635 10.43 168.163 11.342C168.691 12.242 168.955 13.286 168.955 14.474C168.955 15.422 168.799 16.334 168.487 17.21C168.175 18.074 167.719 18.776 167.119 19.316C166.531 19.856 165.841 20.126 165.049 20.126C164.449 20.126 163.987 19.976 163.663 19.676C163.339 19.376 163.153 18.968 163.105 18.452C162.733 18.968 162.259 19.376 161.683 19.676C161.119 19.976 160.519 20.126 159.883 20.126C158.971 20.126 158.251 19.85 157.723 19.298C157.207 18.734 156.949 17.978 156.949 17.03C156.949 16.13 157.135 15.29 157.507 14.51C157.891 13.73 158.419 13.106 159.091 12.638C159.763 12.158 160.525 11.918 161.377 11.918C162.517 11.918 163.285 12.35 163.681 13.214L163.879 12.098H165.301L164.401 17.3C164.365 17.528 164.347 17.738 164.347 17.93C164.347 18.65 164.665 19.01 165.301 19.01C165.781 19.01 166.195 18.782 166.543 18.326C166.903 17.87 167.173 17.3 167.353 16.616C167.533 15.92 167.623 15.236 167.623 14.564C167.623 12.992 167.149 11.774 166.201 10.91C165.265 10.046 163.939 9.614 162.223 9.614C160.795 9.614 159.505 9.962 158.353 10.658C157.213 11.342 156.319 12.284 155.671 13.484C155.023 14.684 154.699 16.01 154.699 17.462C154.687 19.046 155.161 20.264 156.121 21.116C157.081 21.98 158.413 22.412 160.117 22.412C161.245 22.412 162.241 22.208 163.105 21.8L163.321 22.916C162.253 23.36 161.077 23.582 159.793 23.582C158.509 23.582 157.375 23.336 156.391 22.844C155.419 22.364 154.663 21.668 154.123 20.756C153.595 19.856 153.331 18.806 153.331 17.606C153.331 15.914 153.721 14.372 154.501 12.98C155.281 11.576 156.361 10.472 157.741 9.668C159.133 8.864 160.693 8.462 162.421 8.462ZM160.369 18.848C160.909 18.848 161.407 18.692 161.863 18.38C162.319 18.056 162.679 17.624 162.943 17.084C163.207 16.532 163.339 15.932 163.339 15.284C163.339 14.66 163.165 14.156 162.817 13.772C162.481 13.376 162.001 13.178 161.377 13.178C160.801 13.178 160.291 13.352 159.847 13.7C159.415 14.036 159.079 14.486 158.839 15.05C158.599 15.602 158.479 16.178 158.479 16.778C158.479 17.414 158.641 17.918 158.965 18.29C159.289 18.662 159.757 18.848 160.369 18.848ZM175.718 9.974C176.57 9.974 177.314 10.16 177.95 10.532C178.598 10.904 179.078 11.372 179.39 11.936V10.136H181.046V20.216C181.046 21.116 180.854 21.914 180.47 22.61C180.086 23.318 179.534 23.87 178.814 24.266C178.106 24.662 177.278 24.86 176.33 24.86C175.034 24.86 173.954 24.554 173.09 23.942C172.226 23.33 171.716 22.496 171.56 21.44H173.18C173.36 22.04 173.732 22.52 174.296 22.88C174.86 23.252 175.538 23.438 176.33 23.438C177.23 23.438 177.962 23.156 178.526 22.592C179.102 22.028 179.39 21.236 179.39 20.216V18.146C179.066 18.722 178.586 19.202 177.95 19.586C177.314 19.97 176.57 20.162 175.718 20.162C174.842 20.162 174.044 19.946 173.324 19.514C172.616 19.082 172.058 18.476 171.65 17.696C171.242 16.916 171.038 16.028 171.038 15.032C171.038 14.024 171.242 13.142 171.65 12.386C172.058 11.618 172.616 11.024 173.324 10.604C174.044 10.184 174.842 9.974 175.718 9.974ZM179.39 15.05C179.39 14.306 179.24 13.658 178.94 13.106C178.64 12.554 178.232 12.134 177.716 11.846C177.212 11.546 176.654 11.396 176.042 11.396C175.43 11.396 174.872 11.54 174.368 11.828C173.864 12.116 173.462 12.536 173.162 13.088C172.862 13.64 172.712 14.288 172.712 15.032C172.712 15.788 172.862 16.448 173.162 17.012C173.462 17.564 173.864 17.99 174.368 18.29C174.872 18.578 175.43 18.722 176.042 18.722C176.654 18.722 177.212 18.578 177.716 18.29C178.232 17.99 178.64 17.564 178.94 17.012C179.24 16.448 179.39 15.794 179.39 15.05ZM195.676 9.956C196.444 9.956 197.128 10.118 197.728 10.442C198.328 10.754 198.802 11.228 199.15 11.864C199.498 12.5 199.672 13.274 199.672 14.186V20H198.052V14.42C198.052 13.436 197.806 12.686 197.314 12.17C196.834 11.642 196.18 11.378 195.352 11.378C194.5 11.378 193.822 11.654 193.318 12.206C192.814 12.746 192.562 13.532 192.562 14.564V20H190.942V14.42C190.942 13.436 190.696 12.686 190.204 12.17C189.724 11.642 189.07 11.378 188.242 11.378C187.39 11.378 186.712 11.654 186.208 12.206C185.704 12.746 185.452 13.532 185.452 14.564V20H183.814V10.136H185.452V11.558C185.776 11.042 186.208 10.646 186.748 10.37C187.3 10.094 187.906 9.956 188.566 9.956C189.394 9.956 190.126 10.142 190.762 10.514C191.398 10.886 191.872 11.432 192.184 12.152C192.46 11.456 192.916 10.916 193.552 10.532C194.188 10.148 194.896 9.956 195.676 9.956ZM201.747 15.032C201.747 14.024 201.951 13.142 202.359 12.386C202.767 11.618 203.325 11.024 204.033 10.604C204.753 10.184 205.551 9.974 206.427 9.974C207.291 9.974 208.041 10.16 208.677 10.532C209.313 10.904 209.787 11.372 210.099 11.936V10.136H211.755V20H210.099V18.164C209.775 18.74 209.289 19.22 208.641 19.604C208.005 19.976 207.261 20.162 206.409 20.162C205.533 20.162 204.741 19.946 204.033 19.514C203.325 19.082 202.767 18.476 202.359 17.696C201.951 16.916 201.747 16.028 201.747 15.032ZM210.099 15.05C210.099 14.306 209.949 13.658 209.649 13.106C209.349 12.554 208.941 12.134 208.425 11.846C207.921 11.546 207.363 11.396 206.751 11.396C206.139 11.396 205.581 11.54 205.077 11.828C204.573 12.116 204.171 12.536 203.871 13.088C203.571 13.64 203.421 14.288 203.421 15.032C203.421 15.788 203.571 16.448 203.871 17.012C204.171 17.564 204.573 17.99 205.077 18.29C205.581 18.578 206.139 18.722 206.751 18.722C207.363 18.722 207.921 18.578 208.425 18.29C208.941 17.99 209.349 17.564 209.649 17.012C209.949 16.448 210.099 15.794 210.099 15.05ZM215.369 8.534C215.057 8.534 214.793 8.426 214.577 8.21C214.361 7.994 214.253 7.73 214.253 7.418C214.253 7.106 214.361 6.842 214.577 6.626C214.793 6.41 215.057 6.302 215.369 6.302C215.669 6.302 215.921 6.41 216.125 6.626C216.341 6.842 216.449 7.106 216.449 7.418C216.449 7.73 216.341 7.994 216.125 8.21C215.921 8.426 215.669 8.534 215.369 8.534ZM216.161 10.136V20H214.523V10.136H216.161ZM220.59 6.68V20H218.952V6.68H220.59ZM223.904 20.108C223.592 20.108 223.328 20 223.112 19.784C222.896 19.568 222.788 19.304 222.788 18.992C222.788 18.68 222.896 18.416 223.112 18.2C223.328 17.984 223.592 17.876 223.904 17.876C224.204 17.876 224.456 17.984 224.66 18.2C224.876 18.416 224.984 18.68 224.984 18.992C224.984 19.304 224.876 19.568 224.66 19.784C224.456 20 224.204 20.108 223.904 20.108ZM226.549 15.05C226.549 14.03 226.753 13.142 227.161 12.386C227.569 11.618 228.133 11.024 228.853 10.604C229.585 10.184 230.419 9.974 231.355 9.974C232.567 9.974 233.563 10.268 234.343 10.856C235.135 11.444 235.657 12.26 235.909 13.304H234.145C233.977 12.704 233.647 12.23 233.155 11.882C232.675 11.534 232.075 11.36 231.355 11.36C230.419 11.36 229.663 11.684 229.087 12.332C228.511 12.968 228.223 13.874 228.223 15.05C228.223 16.238 228.511 17.156 229.087 17.804C229.663 18.452 230.419 18.776 231.355 18.776C232.075 18.776 232.675 18.608 233.155 18.272C233.635 17.936 233.965 17.456 234.145 16.832H235.909C235.645 17.84 235.117 18.65 234.325 19.262C233.533 19.862 232.543 20.162 231.355 20.162C230.419 20.162 229.585 19.952 228.853 19.532C228.133 19.112 227.569 18.518 227.161 17.75C226.753 16.982 226.549 16.082 226.549 15.05ZM242.397 20.162C241.473 20.162 240.633 19.952 239.877 19.532C239.133 19.112 238.545 18.518 238.113 17.75C237.693 16.97 237.483 16.07 237.483 15.05C237.483 14.042 237.699 13.154 238.131 12.386C238.575 11.606 239.175 11.012 239.931 10.604C240.687 10.184 241.533 9.974 242.469 9.974C243.405 9.974 244.251 10.184 245.007 10.604C245.763 11.012 246.357 11.6 246.789 12.368C247.233 13.136 247.455 14.03 247.455 15.05C247.455 16.07 247.227 16.97 246.771 17.75C246.327 18.518 245.721 19.112 244.953 19.532C244.185 19.952 243.333 20.162 242.397 20.162ZM242.397 18.722C242.985 18.722 243.537 18.584 244.053 18.308C244.569 18.032 244.983 17.618 245.295 17.066C245.619 16.514 245.781 15.842 245.781 15.05C245.781 14.258 245.625 13.586 245.313 13.034C245.001 12.482 244.593 12.074 244.089 11.81C243.585 11.534 243.039 11.396 242.451 11.396C241.851 11.396 241.299 11.534 240.795 11.81C240.303 12.074 239.907 12.482 239.607 13.034C239.307 13.586 239.157 14.258 239.157 15.05C239.157 15.854 239.301 16.532 239.589 17.084C239.889 17.636 240.285 18.05 240.777 18.326C241.269 18.59 241.809 18.722 242.397 18.722ZM261.471 9.956C262.239 9.956 262.923 10.118 263.523 10.442C264.123 10.754 264.597 11.228 264.945 11.864C265.293 12.5 265.467 13.274 265.467 14.186V20H263.847V14.42C263.847 13.436 263.601 12.686 263.109 12.17C262.629 11.642 261.975 11.378 261.147 11.378C260.295 11.378 259.617 11.654 259.113 12.206C258.609 12.746 258.357 13.532 258.357 14.564V20H256.737V14.42C256.737 13.436 256.491 12.686 255.999 12.17C255.519 11.642 254.865 11.378 254.037 11.378C253.185 11.378 252.507 11.654 252.003 12.206C251.499 12.746 251.247 13.532 251.247 14.564V20H249.609V10.136H251.247V11.558C251.571 11.042 252.003 10.646 252.543 10.37C253.095 10.094 253.701 9.956 254.361 9.956C255.189 9.956 255.921 10.142 256.557 10.514C257.193 10.886 257.667 11.432 257.979 12.152C258.255 11.456 258.711 10.916 259.347 10.532C259.983 10.148 260.691 9.956 261.471 9.956Z" fill="#152836"/>
<path d="M22.2857 5H1.71429C1.25963 5 0.823593 5.17911 0.502103 5.49792C0.180612 5.81673 0 6.24913 0 6.7V20.3C0 20.7509 0.180612 21.1833 0.502103 21.5021C0.823593 21.8209 1.25963 22 1.71429 22H22.2857C22.7404 22 23.1764 21.8209 23.4979 21.5021C23.8194 21.1833 24 20.7509 24 20.3V6.7C24 6.24913 23.8194 5.81673 23.4979 5.49792C23.1764 5.17911 22.7404 5 22.2857 5ZM20.4 6.7L12 12.463L3.6 6.7H20.4ZM1.71429 20.3V7.4735L11.5114 14.197C11.6549 14.2957 11.8254 14.3486 12 14.3486C12.1746 14.3486 12.3451 14.2957 12.4886 14.197L22.2857 7.4735V20.3H1.71429Z" fill="#152836"/>
</svg>
