<svg width="411" height="504" viewBox="0 0 411 504" fill="none" xmlns="http://www.w3.org/2000/svg">
<path d="M47.688 34.112C47.688 35.04 47.368 35.8133 46.728 36.432C46.0987 37.04 45.1333 37.344 43.832 37.344H41.688V42H40.232V30.848H43.832C45.0907 30.848 46.0453 31.152 46.696 31.76C47.3573 32.368 47.688 33.152 47.688 34.112ZM43.832 36.144C44.6427 36.144 45.24 35.968 45.624 35.616C46.008 35.264 46.2 34.7627 46.2 34.112C46.2 32.736 45.4107 32.048 43.832 32.048H41.688V36.144H43.832ZM50.9536 34.656C51.2096 34.1547 51.5723 33.7653 52.0416 33.488C52.5216 33.2107 53.103 33.072 53.7856 33.072V34.576H53.4016C51.7696 34.576 50.9536 35.4613 50.9536 37.232V42H49.4976V33.232H50.9536V34.656ZM59.2904 42.144C58.469 42.144 57.7224 41.9573 57.0504 41.584C56.389 41.2107 55.8664 40.6827 55.4824 40C55.109 39.3067 54.9224 38.5067 54.9224 37.6C54.9224 36.704 55.1144 35.9147 55.4984 35.232C55.893 34.5387 56.4264 34.0107 57.0984 33.648C57.7704 33.2747 58.5224 33.088 59.3544 33.088C60.1864 33.088 60.9384 33.2747 61.6104 33.648C62.2824 34.0107 62.8104 34.5333 63.1944 35.216C63.589 35.8987 63.7864 36.6933 63.7864 37.6C63.7864 38.5067 63.5837 39.3067 63.1784 40C62.7837 40.6827 62.245 41.2107 61.5624 41.584C60.8797 41.9573 60.1224 42.144 59.2904 42.144ZM59.2904 40.864C59.813 40.864 60.3037 40.7413 60.7624 40.496C61.221 40.2507 61.589 39.8827 61.8664 39.392C62.1544 38.9013 62.2984 38.304 62.2984 37.6C62.2984 36.896 62.1597 36.2987 61.8824 35.808C61.605 35.3173 61.2424 34.9547 60.7944 34.72C60.3464 34.4747 59.861 34.352 59.3384 34.352C58.805 34.352 58.3144 34.4747 57.8664 34.72C57.429 34.9547 57.077 35.3173 56.8104 35.808C56.5437 36.2987 56.4104 36.896 56.4104 37.6C56.4104 38.3147 56.5384 38.9173 56.7944 39.408C57.061 39.8987 57.413 40.2667 57.8504 40.512C58.2877 40.7467 58.7677 40.864 59.2904 40.864ZM65.1568 37.584C65.1568 36.688 65.3381 35.904 65.7008 35.232C66.0634 34.5493 66.5594 34.0213 67.1888 33.648C67.8288 33.2747 68.5434 33.088 69.3328 33.088C70.0154 33.088 70.6501 33.248 71.2368 33.568C71.8234 33.8773 72.2714 34.288 72.5808 34.8V30.16H74.0528V42H72.5808V40.352C72.2928 40.8747 71.8661 41.3067 71.3008 41.648C70.7354 41.9787 70.0741 42.144 69.3168 42.144C68.5381 42.144 67.8288 41.952 67.1888 41.568C66.5594 41.184 66.0634 40.6453 65.7008 39.952C65.3381 39.2587 65.1568 38.4693 65.1568 37.584ZM72.5808 37.6C72.5808 36.9387 72.4474 36.3627 72.1808 35.872C71.9141 35.3813 71.5514 35.008 71.0928 34.752C70.6448 34.4853 70.1488 34.352 69.6048 34.352C69.0608 34.352 68.5648 34.48 68.1168 34.736C67.6688 34.992 67.3114 35.3653 67.0448 35.856C66.7781 36.3467 66.6448 36.9227 66.6448 37.584C66.6448 38.256 66.7781 38.8427 67.0448 39.344C67.3114 39.8347 67.6688 40.2133 68.1168 40.48C68.5648 40.736 69.0608 40.864 69.6048 40.864C70.1488 40.864 70.6448 40.736 71.0928 40.48C71.5514 40.2133 71.9141 39.8347 72.1808 39.344C72.4474 38.8427 72.5808 38.2613 72.5808 37.6ZM84.2893 33.232V42H82.8333V40.704C82.5559 41.152 82.1666 41.504 81.6653 41.76C81.1746 42.0053 80.6306 42.128 80.0333 42.128C79.3506 42.128 78.7373 41.9893 78.1933 41.712C77.6493 41.424 77.2173 40.9973 76.8973 40.432C76.5879 39.8667 76.4333 39.1787 76.4333 38.368V33.232H77.8733V38.176C77.8733 39.04 78.0919 39.7067 78.5293 40.176C78.9666 40.6347 79.5639 40.864 80.3213 40.864C81.0999 40.864 81.7133 40.624 82.1613 40.144C82.6093 39.664 82.8333 38.9653 82.8333 38.048V33.232H84.2893ZM86.2036 37.6C86.2036 36.6933 86.385 35.904 86.7476 35.232C87.1103 34.5493 87.6116 34.0213 88.2516 33.648C88.9023 33.2747 89.6436 33.088 90.4756 33.088C91.553 33.088 92.4383 33.3493 93.1316 33.872C93.8356 34.3947 94.2996 35.12 94.5236 36.048H92.9556C92.8063 35.5147 92.513 35.0933 92.0756 34.784C91.649 34.4747 91.1156 34.32 90.4756 34.32C89.6436 34.32 88.9716 34.608 88.4596 35.184C87.9476 35.7493 87.6916 36.5547 87.6916 37.6C87.6916 38.656 87.9476 39.472 88.4596 40.048C88.9716 40.624 89.6436 40.912 90.4756 40.912C91.1156 40.912 91.649 40.7627 92.0756 40.464C92.5023 40.1653 92.7956 39.7387 92.9556 39.184H94.5236C94.289 40.08 93.8196 40.8 93.1156 41.344C92.4116 41.8773 91.5316 42.144 90.4756 42.144C89.6436 42.144 88.9023 41.9573 88.2516 41.584C87.6116 41.2107 87.1103 40.6827 86.7476 40C86.385 39.3173 86.2036 38.5173 86.2036 37.6ZM98.2424 34.432V39.6C98.2424 40.0267 98.333 40.3307 98.5144 40.512C98.6957 40.6827 99.0104 40.768 99.4584 40.768H100.53V42H99.2184C98.4077 42 97.7997 41.8133 97.3944 41.44C96.989 41.0667 96.7864 40.4533 96.7864 39.6V34.432H95.6504V33.232H96.7864V31.024H98.2424V33.232H100.53V34.432H98.2424ZM105.399 42.144C104.727 42.144 104.124 42.032 103.591 41.808C103.057 41.5733 102.636 41.2533 102.327 40.848C102.017 40.432 101.847 39.9573 101.815 39.424H103.319C103.361 39.8613 103.564 40.2187 103.927 40.496C104.3 40.7733 104.785 40.912 105.383 40.912C105.937 40.912 106.375 40.7893 106.695 40.544C107.015 40.2987 107.175 39.9893 107.175 39.616C107.175 39.232 107.004 38.9493 106.663 38.768C106.321 38.576 105.793 38.3893 105.079 38.208C104.428 38.0373 103.895 37.8667 103.479 37.696C103.073 37.5147 102.721 37.2533 102.423 36.912C102.135 36.56 101.991 36.1013 101.991 35.536C101.991 35.088 102.124 34.6773 102.391 34.304C102.657 33.9307 103.036 33.6373 103.527 33.424C104.017 33.2 104.577 33.088 105.207 33.088C106.177 33.088 106.961 33.3333 107.559 33.824C108.156 34.3147 108.476 34.9867 108.519 35.84H107.063C107.031 35.3813 106.844 35.0133 106.503 34.736C106.172 34.4587 105.724 34.32 105.159 34.32C104.636 34.32 104.22 34.432 103.911 34.656C103.601 34.88 103.447 35.1733 103.447 35.536C103.447 35.824 103.537 36.064 103.719 36.256C103.911 36.4373 104.145 36.5867 104.423 36.704C104.711 36.8107 105.105 36.9333 105.607 37.072C106.236 37.2427 106.748 37.4133 107.143 37.584C107.537 37.744 107.873 37.9893 108.151 38.32C108.439 38.6507 108.588 39.0827 108.599 39.616C108.599 40.096 108.465 40.528 108.199 40.912C107.932 41.296 107.553 41.6 107.063 41.824C106.583 42.0373 106.028 42.144 105.399 42.144Z" fill="#152836"/>
<path d="M141.824 39.52H136.96L136.064 42H134.528L138.56 30.912H140.24L144.256 42H142.72L141.824 39.52ZM141.408 38.336L139.392 32.704L137.376 38.336H141.408ZM147.469 34.864C147.768 34.3413 148.205 33.9147 148.781 33.584C149.357 33.2533 150.013 33.088 150.749 33.088C151.539 33.088 152.248 33.2747 152.877 33.648C153.507 34.0213 154.003 34.5493 154.365 35.232C154.728 35.904 154.909 36.688 154.909 37.584C154.909 38.4693 154.728 39.2587 154.365 39.952C154.003 40.6453 153.501 41.184 152.861 41.568C152.232 41.952 151.528 42.144 150.749 42.144C149.992 42.144 149.325 41.9787 148.749 41.648C148.184 41.3173 147.757 40.896 147.469 40.384V42H146.013V30.16H147.469V34.864ZM153.421 37.584C153.421 36.9227 153.288 36.3467 153.021 35.856C152.755 35.3653 152.392 34.992 151.933 34.736C151.485 34.48 150.989 34.352 150.445 34.352C149.912 34.352 149.416 34.4853 148.957 34.752C148.509 35.008 148.147 35.3867 147.869 35.888C147.603 36.3787 147.469 36.9493 147.469 37.6C147.469 38.2613 147.603 38.8427 147.869 39.344C148.147 39.8347 148.509 40.2133 148.957 40.48C149.416 40.736 149.912 40.864 150.445 40.864C150.989 40.864 151.485 40.736 151.933 40.48C152.392 40.2133 152.755 39.8347 153.021 39.344C153.288 38.8427 153.421 38.256 153.421 37.584ZM160.65 42.144C159.828 42.144 159.082 41.9573 158.41 41.584C157.748 41.2107 157.226 40.6827 156.842 40C156.468 39.3067 156.282 38.5067 156.282 37.6C156.282 36.704 156.474 35.9147 156.858 35.232C157.252 34.5387 157.786 34.0107 158.458 33.648C159.13 33.2747 159.882 33.088 160.714 33.088C161.546 33.088 162.298 33.2747 162.97 33.648C163.642 34.0107 164.17 34.5333 164.554 35.216C164.948 35.8987 165.146 36.6933 165.146 37.6C165.146 38.5067 164.943 39.3067 164.538 40C164.143 40.6827 163.604 41.2107 162.922 41.584C162.239 41.9573 161.482 42.144 160.65 42.144ZM160.65 40.864C161.172 40.864 161.663 40.7413 162.122 40.496C162.58 40.2507 162.948 39.8827 163.226 39.392C163.514 38.9013 163.658 38.304 163.658 37.6C163.658 36.896 163.519 36.2987 163.242 35.808C162.964 35.3173 162.602 34.9547 162.154 34.72C161.706 34.4747 161.22 34.352 160.698 34.352C160.164 34.352 159.674 34.4747 159.226 34.72C158.788 34.9547 158.436 35.3173 158.17 35.808C157.903 36.2987 157.77 36.896 157.77 37.6C157.77 38.3147 157.898 38.9173 158.154 39.408C158.42 39.8987 158.772 40.2667 159.21 40.512C159.647 40.7467 160.127 40.864 160.65 40.864ZM174.836 33.232V42H173.38V40.704C173.103 41.152 172.713 41.504 172.212 41.76C171.721 42.0053 171.177 42.128 170.58 42.128C169.897 42.128 169.284 41.9893 168.74 41.712C168.196 41.424 167.764 40.9973 167.444 40.432C167.135 39.8667 166.98 39.1787 166.98 38.368V33.232H168.42V38.176C168.42 39.04 168.639 39.7067 169.076 40.176C169.513 40.6347 170.111 40.864 170.868 40.864C171.647 40.864 172.26 40.624 172.708 40.144C173.156 39.664 173.38 38.9653 173.38 38.048V33.232H174.836ZM179.071 34.432V39.6C179.071 40.0267 179.161 40.3307 179.343 40.512C179.524 40.6827 179.839 40.768 180.286 40.768H181.359V42H180.047C179.236 42 178.628 41.8133 178.223 41.44C177.817 41.0667 177.615 40.4533 177.615 39.6V34.432H176.479V33.232H177.615V31.024H179.071V33.232H181.359V34.432H179.071Z" fill="#152836"/>
<path d="M206.688 36.416C206.688 35.328 206.933 34.352 207.424 33.488C207.915 32.6133 208.581 31.9307 209.424 31.44C210.277 30.9493 211.221 30.704 212.256 30.704C213.472 30.704 214.533 30.9973 215.44 31.584C216.347 32.1707 217.008 33.0027 217.424 34.08H215.68C215.371 33.408 214.923 32.8907 214.336 32.528C213.76 32.1653 213.067 31.984 212.256 31.984C211.477 31.984 210.779 32.1653 210.16 32.528C209.541 32.8907 209.056 33.408 208.704 34.08C208.352 34.7413 208.176 35.52 208.176 36.416C208.176 37.3013 208.352 38.08 208.704 38.752C209.056 39.4133 209.541 39.9253 210.16 40.288C210.779 40.6507 211.477 40.832 212.256 40.832C213.067 40.832 213.76 40.656 214.336 40.304C214.923 39.9413 215.371 39.424 215.68 38.752H217.424C217.008 39.8187 216.347 40.6453 215.44 41.232C214.533 41.808 213.472 42.096 212.256 42.096C211.221 42.096 210.277 41.856 209.424 41.376C208.581 40.8853 207.915 40.208 207.424 39.344C206.933 38.48 206.688 37.504 206.688 36.416ZM223.415 42.144C222.594 42.144 221.847 41.9573 221.175 41.584C220.514 41.2107 219.991 40.6827 219.607 40C219.234 39.3067 219.047 38.5067 219.047 37.6C219.047 36.704 219.239 35.9147 219.623 35.232C220.018 34.5387 220.551 34.0107 221.223 33.648C221.895 33.2747 222.647 33.088 223.479 33.088C224.311 33.088 225.063 33.2747 225.735 33.648C226.407 34.0107 226.935 34.5333 227.319 35.216C227.714 35.8987 227.911 36.6933 227.911 37.6C227.911 38.5067 227.709 39.3067 227.303 40C226.909 40.6827 226.37 41.2107 225.687 41.584C225.005 41.9573 224.247 42.144 223.415 42.144ZM223.415 40.864C223.938 40.864 224.429 40.7413 224.887 40.496C225.346 40.2507 225.714 39.8827 225.991 39.392C226.279 38.9013 226.423 38.304 226.423 37.6C226.423 36.896 226.285 36.2987 226.007 35.808C225.73 35.3173 225.367 34.9547 224.919 34.72C224.471 34.4747 223.986 34.352 223.463 34.352C222.93 34.352 222.439 34.4747 221.991 34.72C221.554 34.9547 221.202 35.3173 220.935 35.808C220.669 36.2987 220.535 36.896 220.535 37.6C220.535 38.3147 220.663 38.9173 220.919 39.408C221.186 39.8987 221.538 40.2667 221.975 40.512C222.413 40.7467 222.893 40.864 223.415 40.864ZM234.098 33.072C235.164 33.072 236.028 33.3973 236.69 34.048C237.351 34.688 237.682 35.616 237.682 36.832V42H236.242V37.04C236.242 36.1653 236.023 35.4987 235.586 35.04C235.148 34.5707 234.551 34.336 233.794 34.336C233.026 34.336 232.412 34.576 231.954 35.056C231.506 35.536 231.282 36.2347 231.282 37.152V42H229.826V33.232H231.282V34.48C231.57 34.032 231.959 33.6853 232.45 33.44C232.951 33.1947 233.5 33.072 234.098 33.072ZM241.836 34.432V39.6C241.836 40.0267 241.927 40.3307 242.108 40.512C242.289 40.6827 242.604 40.768 243.052 40.768H244.124V42H242.812C242.001 42 241.393 41.8133 240.988 41.44C240.583 41.0667 240.38 40.4533 240.38 39.6V34.432H239.244V33.232H240.38V31.024H241.836V33.232H244.124V34.432H241.836ZM245.344 37.584C245.344 36.688 245.526 35.904 245.888 35.232C246.251 34.5493 246.747 34.0213 247.376 33.648C248.016 33.2747 248.726 33.088 249.504 33.088C250.272 33.088 250.939 33.2533 251.504 33.584C252.07 33.9147 252.491 34.3307 252.768 34.832V33.232H254.24V42H252.768V40.368C252.48 40.88 252.048 41.3067 251.472 41.648C250.907 41.9787 250.246 42.144 249.488 42.144C248.71 42.144 248.006 41.952 247.376 41.568C246.747 41.184 246.251 40.6453 245.888 39.952C245.526 39.2587 245.344 38.4693 245.344 37.584ZM252.768 37.6C252.768 36.9387 252.635 36.3627 252.368 35.872C252.102 35.3813 251.739 35.008 251.28 34.752C250.832 34.4853 250.336 34.352 249.792 34.352C249.248 34.352 248.752 34.48 248.304 34.736C247.856 34.992 247.499 35.3653 247.232 35.856C246.966 36.3467 246.832 36.9227 246.832 37.584C246.832 38.256 246.966 38.8427 247.232 39.344C247.499 39.8347 247.856 40.2133 248.304 40.48C248.752 40.736 249.248 40.864 249.792 40.864C250.336 40.864 250.832 40.736 251.28 40.48C251.739 40.2133 252.102 39.8347 252.368 39.344C252.635 38.8427 252.768 38.2613 252.768 37.6ZM256.157 37.6C256.157 36.6933 256.338 35.904 256.701 35.232C257.063 34.5493 257.565 34.0213 258.205 33.648C258.855 33.2747 259.597 33.088 260.429 33.088C261.506 33.088 262.391 33.3493 263.085 33.872C263.789 34.3947 264.253 35.12 264.477 36.048H262.909C262.759 35.5147 262.466 35.0933 262.029 34.784C261.602 34.4747 261.069 34.32 260.429 34.32C259.597 34.32 258.925 34.608 258.413 35.184C257.901 35.7493 257.645 36.5547 257.645 37.6C257.645 38.656 257.901 39.472 258.413 40.048C258.925 40.624 259.597 40.912 260.429 40.912C261.069 40.912 261.602 40.7627 262.029 40.464C262.455 40.1653 262.749 39.7387 262.909 39.184H264.477C264.242 40.08 263.773 40.8 263.069 41.344C262.365 41.8773 261.485 42.144 260.429 42.144C259.597 42.144 258.855 41.9573 258.205 41.584C257.565 41.2107 257.063 40.6827 256.701 40C256.338 39.3173 256.157 38.5173 256.157 37.6ZM268.196 34.432V39.6C268.196 40.0267 268.286 40.3307 268.468 40.512C268.649 40.6827 268.964 40.768 269.411 40.768H270.484V42H269.172C268.361 42 267.753 41.8133 267.348 41.44C266.942 41.0667 266.74 40.4533 266.74 39.6V34.432H265.604V33.232H266.74V31.024H268.196V33.232H270.484V34.432H268.196Z" fill="#152836"/>
<path d="M283.424 73.6393C382.905 37.8184 376.105 -30.9413 380.4 -33L593.317 2.82093C609.897 31.0934 642.842 88.8735 641.984 93.8143C640.91 99.9903 614.43 396.851 455.189 478.786C295.948 560.722 36.6029 425.526 39.0167 322.327C40.8711 243.048 114.879 266.974 173.208 204.571C230.067 143.741 183.943 109.46 283.424 73.6393Z" fill="url(#paint0_linear)"/>
<path d="M343.844 352.93H99.3631C93.8252 352.93 89.3398 348.445 89.3398 342.907V188.023C89.3398 182.485 93.8252 178 99.3631 178H343.844C349.382 178 353.867 182.485 353.867 188.023V342.907C353.867 348.445 349.382 352.93 343.844 352.93Z" fill="#455A64"/>
<path d="M353.352 356.941H91.2454C84.4829 356.941 79 351.458 79 344.695V341.634H365.59V344.695C365.597 351.458 360.114 356.941 353.352 356.941Z" fill="#455A64"/>
<path d="M346.025 184.948H96.4393V332.67H346.025V184.948Z" fill="#263238"/>
<path d="M195.524 339.99L199.08 345.652H249.128L252.43 339.99H195.524Z" fill="#263238"/>
<path d="M339.145 332.202H103.835C102.59 332.202 101.585 331.191 101.585 329.953V192.206C101.585 190.961 102.596 189.956 103.835 189.956H339.145C340.391 189.956 341.395 190.968 341.395 192.206V329.953C341.402 331.198 340.391 332.202 339.145 332.202Z" fill="#EBEBEB"/>
<path d="M341.141 332.409H101.324L101.585 200.585H341.141V332.409Z" fill="#FAFAFA"/>
<path d="M121.253 195.446C121.253 196.506 120.393 197.359 119.341 197.359C118.282 197.359 117.428 196.499 117.428 195.446C117.428 194.387 118.288 193.534 119.341 193.534C120.393 193.534 121.253 194.387 121.253 195.446Z" fill="#263238"/>
<path d="M109.641 195.446C109.641 196.506 108.781 197.359 107.728 197.359C106.669 197.359 105.816 196.499 105.816 195.446C105.816 194.387 106.676 193.534 107.728 193.534C108.788 193.534 109.641 194.387 109.641 195.446Z" fill="#263238"/>
<path d="M115.213 195.446C115.213 196.506 114.353 197.359 113.301 197.359C112.241 197.359 111.388 196.499 111.388 195.446C111.388 194.387 112.248 193.534 113.301 193.534C114.36 193.534 115.213 194.387 115.213 195.446Z" fill="#263238"/>
<path d="M351.59 339.99C351.59 340.086 292.881 340.162 220.468 340.162C148.035 340.162 89.3329 340.086 89.3329 339.99C89.3329 339.894 148.035 339.818 220.468 339.818C292.881 339.818 351.59 339.9 351.59 339.99Z" fill="#263238"/>
<path d="M178.373 252.078L275.944 251.17L278.799 317.494L177.768 316.772L178.373 252.078Z" fill="#66B9AA"/>
<path d="M178.373 252.078L224.472 214.619C226.426 213.03 229.219 213.037 231.173 214.626L275.944 251.17" fill="#66B9AA"/>
<g opacity="0.3">
<g opacity="0.3">
<g opacity="0.3">
<path opacity="0.3" d="M178.373 252.078L224.472 214.619C226.426 213.03 229.219 213.037 231.173 214.626L275.944 251.17" fill="black"/>
</g>
</g>
</g>
<path d="M177.768 316.772C177.644 316.655 185.439 308.111 195.173 297.688C204.907 287.259 212.901 278.901 213.018 279.017C213.142 279.134 205.348 287.672 195.613 298.101C185.886 308.523 177.892 316.882 177.768 316.772Z" fill="#263238"/>
<path d="M278.799 317.494C278.675 317.604 271.053 309.266 261.773 298.865C252.492 288.463 245.069 279.946 245.193 279.836C245.317 279.726 252.939 288.064 262.22 298.466C271.5 308.867 278.923 317.384 278.799 317.494Z" fill="#263238"/>
<g opacity="0.5">
<g opacity="0.5">
<g opacity="0.5">
<path opacity="0.5" d="M275.944 251.17L227.031 290.41L178.373 252.078" fill="black"/>
</g>
</g>
</g>
<path d="M183.299 255.696L183.079 225.22L268.514 224.037L269.539 256.095L227.025 289.901L183.299 255.696Z" fill="#FAFAFA"/>
<path d="M183.299 255.696C183.299 255.696 183.581 255.903 184.111 256.302C184.64 256.714 185.425 257.313 186.443 258.097C188.486 259.679 191.472 261.998 195.283 264.963C202.912 270.907 213.844 279.43 227.121 289.777H226.942C239.187 280.029 253.717 268.464 269.443 255.951L269.374 256.095C269.175 249.979 268.968 243.561 268.762 237.032C268.625 232.636 268.48 228.295 268.342 224.037L268.521 224.209C234.097 224.663 203.731 225.062 183.086 225.33L183.196 225.213C183.237 234.797 183.271 242.405 183.299 247.627C183.306 250.234 183.306 252.243 183.313 253.612C183.313 254.286 183.313 254.802 183.306 255.16C183.306 255.51 183.299 255.696 183.299 255.696C183.299 255.696 183.285 255.524 183.278 255.18C183.271 254.829 183.265 254.313 183.251 253.646C183.237 252.284 183.21 250.275 183.182 247.675C183.134 242.44 183.058 234.817 182.969 225.22V225.103H183.086C203.724 224.801 234.09 224.354 268.514 223.851H268.686L268.693 224.023C268.831 228.282 268.968 232.623 269.113 237.019C269.319 243.547 269.526 249.966 269.725 256.081V256.171L269.656 256.226C253.923 268.719 239.38 280.27 227.121 290.004L227.031 290.08L226.942 290.011C213.685 279.609 202.761 271.03 195.145 265.052C191.355 262.067 188.39 259.728 186.367 258.132C185.37 257.34 184.599 256.728 184.076 256.315C183.554 255.91 183.299 255.696 183.299 255.696Z" fill="#263238"/>
<path d="M255.045 239.406C255.045 239.502 241.98 239.695 225.869 239.825C209.75 239.956 196.686 239.984 196.686 239.887C196.686 239.791 209.75 239.598 225.869 239.468C241.974 239.33 255.045 239.303 255.045 239.406Z" fill="#263238"/>
<path d="M255.058 248.012C255.058 248.108 241.994 248.301 225.883 248.432C209.764 248.562 196.7 248.59 196.7 248.493C196.7 248.397 209.764 248.205 225.883 248.074C241.994 247.943 255.058 247.916 255.058 248.012Z" fill="#263238"/>
<path d="M255.079 257.932C255.079 258.028 242.015 258.221 225.903 258.352C209.785 258.482 196.721 258.51 196.721 258.414C196.721 258.317 209.785 258.125 225.903 257.994C242.015 257.863 255.079 257.836 255.079 257.932Z" fill="#263238"/>
<path d="M255.1 267.852C255.1 267.948 242.634 268.134 227.265 268.258C211.89 268.382 199.424 268.403 199.424 268.306C199.424 268.21 211.883 268.024 227.265 267.9C242.634 267.777 255.1 267.756 255.1 267.852Z" fill="#263238"/>
<path d="M244.196 276.582C244.196 276.596 244.079 276.61 243.852 276.623C243.583 276.637 243.26 276.651 242.868 276.665C241.96 276.685 240.742 276.72 239.256 276.754C236.16 276.809 231.971 276.885 227.348 276.967C222.697 277.057 218.48 277.084 215.433 277.077C213.947 277.071 212.729 277.057 211.821 277.057C211.429 277.05 211.106 277.036 210.837 277.029C210.61 277.022 210.493 277.009 210.493 276.995C210.493 276.981 210.61 276.967 210.837 276.954C211.106 276.94 211.429 276.926 211.821 276.912C212.729 276.892 213.947 276.857 215.433 276.823C218.529 276.768 222.718 276.692 227.341 276.61C231.992 276.52 236.202 276.493 239.249 276.5C240.735 276.507 241.953 276.52 242.861 276.52C243.253 276.527 243.577 276.541 243.845 276.548C244.079 276.562 244.196 276.575 244.196 276.582Z" fill="#263238"/>
<path d="M233.209 284.975C233.209 285.071 230.423 285.161 226.99 285.168C223.55 285.175 220.771 285.099 220.764 285.003C220.764 284.906 223.55 284.817 226.983 284.81C230.423 284.803 233.209 284.879 233.209 284.975Z" fill="#263238"/>
<path d="M232.873 168.748C232.94 168.753 232.973 169.023 232.949 169.35C232.921 169.676 232.845 169.937 232.779 169.932C232.712 169.927 232.679 169.657 232.703 169.331C232.727 169.004 232.807 168.743 232.873 168.748Z" fill="#263238"/>
<path d="M232.992 163.93C233.058 163.93 233.115 164.47 233.11 165.134C233.11 165.802 233.053 166.342 232.982 166.337C232.916 166.337 232.859 165.797 232.864 165.134C232.869 164.475 232.926 163.935 232.992 163.93Z" fill="#263238"/>
<path d="M232.665 159.122C232.731 159.113 232.836 159.648 232.897 160.311C232.959 160.974 232.954 161.519 232.883 161.524C232.817 161.529 232.712 160.998 232.651 160.335C232.594 159.677 232.599 159.132 232.665 159.122Z" fill="#263238"/>
<path d="M231.864 154.371C231.931 154.357 232.087 154.873 232.215 155.532C232.343 156.185 232.395 156.725 232.324 156.74C232.258 156.749 232.097 156.233 231.973 155.579C231.846 154.93 231.793 154.39 231.864 154.371Z" fill="#263238"/>
<path d="M230.552 149.733C230.619 149.71 230.832 150.207 231.031 150.847C231.23 151.486 231.339 152.017 231.272 152.036C231.206 152.055 230.993 151.557 230.794 150.922C230.595 150.288 230.491 149.757 230.552 149.733Z" fill="#263238"/>
<path d="M228.71 145.285C228.771 145.257 229.041 145.726 229.316 146.332C229.591 146.943 229.761 147.455 229.7 147.483C229.638 147.507 229.363 147.038 229.093 146.436C228.819 145.83 228.648 145.314 228.71 145.285Z" fill="#263238"/>
<path d="M226.317 141.103C226.374 141.065 226.715 141.491 227.071 142.055C227.412 142.628 227.639 143.121 227.582 143.158C227.521 143.192 227.198 142.756 226.862 142.187C226.507 141.624 226.261 141.145 226.317 141.103Z" fill="#263238"/>
<path d="M223.366 137.299C223.418 137.251 223.807 137.63 224.233 138.147C224.659 138.658 224.963 139.108 224.91 139.151C224.858 139.193 224.47 138.815 224.044 138.303C223.617 137.791 223.314 137.341 223.366 137.299Z" fill="#263238"/>
<path d="M219.908 133.945C219.951 133.893 220.391 134.215 220.884 134.66C221.381 135.11 221.746 135.508 221.694 135.56C221.647 135.608 221.211 135.29 220.718 134.845C220.226 134.4 219.861 133.997 219.908 133.945Z" fill="#263238"/>
<path d="M216 131.131C216.033 131.074 216.516 131.325 217.071 131.695C217.625 132.064 218.047 132.41 218.004 132.467C217.966 132.524 217.483 132.268 216.933 131.903C216.384 131.534 215.962 131.188 216 131.131Z" fill="#263238"/>
<path d="M211.708 128.943C211.732 128.881 212.248 129.056 212.855 129.336C213.461 129.615 213.93 129.89 213.897 129.952C213.864 130.013 213.352 129.838 212.75 129.558C212.149 129.279 211.68 129.004 211.708 128.943Z" fill="#263238"/>
<path d="M207.113 127.488C207.128 127.422 207.663 127.507 208.307 127.682C208.951 127.858 209.458 128.052 209.439 128.114C209.42 128.18 208.885 128.09 208.246 127.919C207.606 127.749 207.099 127.555 207.113 127.488Z" fill="#263238"/>
<path d="M202.338 126.877C202.338 126.811 202.883 126.782 203.551 126.82C204.219 126.891 204.75 127 204.74 127.067C204.731 127.133 204.191 127.133 203.532 127.062C202.874 127.029 202.338 126.948 202.338 126.877Z" fill="#263238"/>
<path d="M197.535 127.209C197.526 127.142 198.051 127.024 198.719 126.943C199.382 126.863 199.927 126.858 199.932 126.925C199.937 126.991 199.406 127.109 198.748 127.19C198.089 127.266 197.549 127.275 197.535 127.209Z" fill="#263238"/>
<path d="M192.883 128.45C192.86 128.388 193.357 128.17 193.996 127.967C194.636 127.763 195.167 127.654 195.181 127.72C195.2 127.787 194.702 128 194.068 128.204C193.437 128.402 192.907 128.511 192.883 128.45Z" fill="#263238"/>
<path d="M188.544 130.539C188.506 130.482 188.956 130.174 189.544 129.857C190.131 129.539 190.633 129.331 190.662 129.393C190.69 129.454 190.245 129.762 189.662 130.075C189.084 130.387 188.582 130.596 188.544 130.539Z" fill="#263238"/>
<path d="M184.698 133.429C184.65 133.381 185.029 132.993 185.546 132.562C186.062 132.131 186.512 131.827 186.55 131.884C186.592 131.941 186.213 132.325 185.702 132.751C185.195 133.177 184.745 133.481 184.698 133.429Z" fill="#263238"/>
<path d="M181.547 137.067C181.491 137.029 181.751 136.545 182.159 136.015C182.571 135.484 182.969 135.115 183.021 135.158C183.073 135.205 182.76 135.641 182.353 136.167C181.95 136.688 181.604 137.104 181.547 137.067Z" fill="#263238"/>
<path d="M179.79 140.193C179.728 140.165 179.795 139.904 179.937 139.606C180.079 139.307 180.245 139.094 180.306 139.127C180.368 139.16 180.302 139.421 180.16 139.715C180.017 140.004 179.852 140.221 179.79 140.193Z" fill="#263238"/>
<path d="M149.691 168.146C149.686 168.08 149.942 167.99 150.264 167.952C150.586 167.914 150.856 167.938 150.866 168.004C150.875 168.071 150.619 168.156 150.292 168.198C149.966 168.241 149.696 168.217 149.691 168.146Z" fill="#263238"/>
<path d="M145.001 167.616C145.02 167.549 145.541 167.658 146.176 167.791C146.811 167.924 147.327 168.033 147.322 168.104C147.318 168.17 146.773 168.17 146.124 168.033C145.475 167.895 144.977 167.677 145.001 167.616Z" fill="#263238"/>
<path d="M140.757 165.517C140.795 165.46 141.259 165.721 141.818 166.057C142.377 166.394 142.827 166.673 142.794 166.735C142.765 166.796 142.258 166.612 141.69 166.27C141.126 165.929 140.719 165.574 140.757 165.517Z" fill="#263238"/>
<path d="M137.232 162.353C137.284 162.306 137.673 162.67 138.132 163.135C138.592 163.599 138.947 163.992 138.905 164.044C138.862 164.096 138.421 163.779 137.957 163.31C137.493 162.841 137.18 162.4 137.232 162.353Z" fill="#263238"/>
<path d="M134.447 158.516C134.504 158.483 134.845 158.895 135.2 159.44C135.555 159.984 135.802 160.458 135.75 160.501C135.693 160.543 135.356 160.127 134.996 159.577C134.632 159.028 134.39 158.549 134.447 158.516Z" fill="#263238"/>
<path d="M132.401 154.238C132.462 154.215 132.723 154.684 132.978 155.281C133.234 155.882 133.391 156.389 133.329 156.422C133.267 156.451 133.007 155.986 132.751 155.38C132.495 154.774 132.339 154.262 132.401 154.238Z" fill="#263238"/>
<path d="M131.041 149.691C131.107 149.677 131.297 150.174 131.463 150.809C131.628 151.439 131.709 151.969 131.643 151.988C131.576 152.007 131.387 151.51 131.221 150.87C131.055 150.236 130.975 149.705 131.041 149.691Z" fill="#263238"/>
<path d="M130.217 145.015C130.283 145.006 130.42 145.522 130.515 146.171C130.615 146.82 130.638 147.351 130.572 147.365C130.506 147.379 130.373 146.858 130.274 146.209C130.174 145.56 130.146 145.025 130.217 145.015Z" fill="#263238"/>
<path d="M129.762 140.292C129.828 140.288 129.928 140.814 129.98 141.467C130.032 142.121 130.023 142.656 129.951 142.661C129.885 142.666 129.786 142.145 129.734 141.486C129.681 140.828 129.691 140.297 129.762 140.292Z" fill="#263238"/>
<path d="M129.563 136.735C129.629 136.73 129.7 136.995 129.715 137.322C129.729 137.649 129.686 137.914 129.62 137.919C129.554 137.924 129.483 137.659 129.468 137.332C129.454 137.005 129.497 136.74 129.563 136.735Z" fill="#263238"/>
<path d="M147.401 108.014L108.013 109.871L109.265 136.421L148.653 134.564L147.401 108.014Z" fill="#66B9AA"/>
<path d="M109.251 136.432V136.418L108 109.857H108.014L147.417 108V108.014L148.668 134.575H148.653L109.251 136.432ZM108.024 109.881L109.274 136.408L148.639 134.551L147.389 108.024L108.024 109.881Z" fill="#263238"/>
<path d="M147.54 108.327C147.55 108.336 147.426 108.464 147.19 108.696C146.924 108.952 146.574 109.288 146.138 109.71C145.186 110.605 143.855 111.856 142.225 113.391C138.867 116.498 134.276 120.747 129.184 125.461L129.075 125.56L128.957 125.475C128.867 125.409 128.767 125.338 128.668 125.267C122.998 121.136 117.867 117.398 114.116 114.665C112.287 113.31 110.795 112.206 109.729 111.42C109.236 111.046 108.843 110.747 108.549 110.525C108.279 110.316 108.142 110.203 108.152 110.193C108.161 110.184 108.308 110.279 108.592 110.468C108.9 110.681 109.307 110.961 109.814 111.311C110.899 112.079 112.41 113.149 114.267 114.466C118.033 117.176 123.187 120.885 128.881 124.982C128.98 125.053 129.08 125.124 129.17 125.191L128.943 125.205C134.059 120.525 138.677 116.304 142.055 113.215C143.717 111.714 145.077 110.496 146.048 109.62C146.503 109.217 146.868 108.9 147.142 108.658C147.393 108.426 147.531 108.317 147.54 108.327Z" fill="#263238"/>
<path d="M109.402 136.735C109.322 136.673 112.112 132.898 115.636 128.294C119.156 123.694 122.074 120.013 122.154 120.07C122.235 120.132 119.445 123.907 115.92 128.511C112.401 133.111 109.483 136.792 109.402 136.735Z" fill="#263238"/>
<path d="M135.229 119.123C135.304 119.056 138.402 122.533 142.145 126.882C145.892 131.235 148.867 134.812 148.791 134.878C148.715 134.944 145.622 131.467 141.875 127.119C138.128 122.765 135.153 119.189 135.229 119.123Z" fill="#263238"/>
<path d="M293.156 100L285 135.322L337.403 147.423L345.559 112.101L293.156 100Z" fill="#F5F5F5"/>
<path d="M345.632 112.584C345.642 112.594 345.432 112.724 345.032 112.944C344.592 113.184 344.002 113.494 343.282 113.884C341.702 114.704 339.492 115.854 336.782 117.274C331.232 120.114 323.632 124.004 315.212 128.304L315.032 128.394L314.912 128.234C314.822 128.114 314.712 127.984 314.612 127.854C308.692 120.334 303.332 113.534 299.412 108.564C297.512 106.114 295.962 104.114 294.852 102.684C294.342 102.014 293.942 101.474 293.632 101.074C293.362 100.704 293.222 100.504 293.232 100.494C293.242 100.484 293.412 100.664 293.712 101.014C294.042 101.404 294.472 101.924 295.002 102.574C296.142 103.984 297.732 105.944 299.682 108.354C303.632 113.304 309.022 120.074 314.992 127.554C315.092 127.684 315.202 127.814 315.292 127.934L314.992 127.864C323.432 123.614 331.062 119.764 336.632 116.964C339.372 115.614 341.602 114.504 343.202 113.714C343.952 113.354 344.542 113.074 345.002 112.854C345.402 112.664 345.622 112.564 345.632 112.584Z" fill="#E0E0E0"/>
<path d="M285.072 135.804C284.992 135.694 290.052 131.764 296.372 127.024C302.692 122.284 307.882 118.524 307.962 118.634C308.042 118.744 302.982 122.674 296.662 127.414C290.342 132.154 285.152 135.904 285.072 135.804Z" fill="#E0E0E0"/>
<path d="M325.482 122.214C325.602 122.154 328.392 127.864 331.702 134.954C335.012 142.054 337.602 147.844 337.482 147.904C337.362 147.964 334.572 142.254 331.262 135.164C327.942 128.064 325.362 122.264 325.482 122.214Z" fill="#E0E0E0"/>
<path d="M23.0371 336.319C23.1607 336.301 23.3462 336.769 23.4521 337.37C23.5581 337.97 23.5316 338.474 23.408 338.5C23.2844 338.518 23.0989 338.05 22.9929 337.449C22.8958 336.84 22.9135 336.337 23.0371 336.319Z" fill="#263238"/>
<path d="M21.6242 327.7C21.7478 327.682 22.0039 328.627 22.1982 329.819C22.3925 331.012 22.4455 331.992 22.3218 332.009C22.1982 332.027 21.9421 331.082 21.7478 329.89C21.5535 328.698 21.5005 327.718 21.6242 327.7Z" fill="#263238"/>
<path d="M20.3614 319.064C20.485 319.046 20.7235 320 20.8912 321.192C21.059 322.384 21.0943 323.364 20.9619 323.382C20.8294 323.399 20.5998 322.446 20.432 321.254C20.2731 320.061 20.2378 319.081 20.3614 319.064Z" fill="#263238"/>
<path d="M19.3723 310.392C19.4959 310.383 19.699 311.345 19.8315 312.538C19.9551 313.739 19.9551 314.719 19.8315 314.736C19.7079 314.754 19.5048 313.792 19.3723 312.591C19.2398 311.381 19.2487 310.401 19.3723 310.392Z" fill="#263238"/>
<path d="M18.763 301.676C18.8867 301.667 19.0456 302.638 19.1163 303.839C19.1869 305.04 19.1339 306.02 19.0103 306.029C18.8867 306.038 18.7277 305.067 18.6571 303.866C18.5864 302.665 18.6394 301.685 18.763 301.676Z" fill="#263238"/>
<path d="M18.6747 292.942C18.7983 292.942 18.8955 293.922 18.8955 295.132C18.8866 296.333 18.7807 297.313 18.657 297.313C18.5334 297.313 18.4363 296.333 18.4363 295.123C18.4363 293.922 18.5422 292.942 18.6747 292.942Z" fill="#263238"/>
<path d="M19.2222 284.235C19.3458 284.253 19.3723 285.233 19.2664 286.425C19.1692 287.626 18.9838 288.589 18.8601 288.58C18.7365 288.571 18.71 287.591 18.816 286.39C18.9131 285.189 19.0897 284.226 19.2222 284.235Z" fill="#263238"/>
<path d="M20.5292 275.607C20.6528 275.634 20.5822 276.614 20.379 277.797C20.1671 278.981 19.9022 279.926 19.7697 279.908C19.6461 279.89 19.7167 278.91 19.9199 277.718C20.1406 276.526 20.4055 275.581 20.5292 275.607Z" fill="#263238"/>
<path d="M22.7633 267.174C22.8869 267.218 22.7015 268.181 22.3659 269.329C22.0215 270.477 21.6418 271.386 21.527 271.351C21.4034 271.316 21.58 270.353 21.9332 269.196C22.26 268.039 22.6397 267.13 22.7633 267.174Z" fill="#263238"/>
<path d="M26.0219 259.076C26.1367 259.129 25.8365 260.065 25.3508 261.169C24.8651 262.264 24.3794 263.121 24.2646 263.076C24.1498 263.032 24.45 262.096 24.9357 260.984C25.4214 259.88 25.9071 259.023 26.0219 259.076Z" fill="#263238"/>
<path d="M30.2783 251.464C30.3843 251.535 29.9692 252.427 29.3511 253.451C28.7329 254.475 28.1413 255.261 28.0265 255.199C27.9117 255.138 28.3267 254.246 28.9537 253.212C29.5807 252.179 30.1724 251.393 30.2783 251.464Z" fill="#263238"/>
<path d="M35.515 244.479C35.6121 244.558 35.0734 245.388 34.3228 246.324C33.5722 247.261 32.8745 247.958 32.7774 247.879C32.6714 247.799 33.2101 246.978 33.9696 246.033C34.729 245.097 35.4266 244.399 35.515 244.479Z" fill="#263238"/>
<path d="M41.723 238.341C41.8025 238.439 41.149 239.172 40.2659 239.984C39.3828 240.796 38.5881 241.379 38.4998 241.291C38.4114 241.203 39.0649 240.47 39.9568 239.648C40.8487 238.827 41.6435 238.244 41.723 238.341Z" fill="#263238"/>
<path d="M48.8583 233.326C48.9201 233.44 48.1518 234.05 47.1451 234.694C46.1384 235.339 45.2553 235.781 45.1847 235.675C45.114 235.569 45.8823 234.959 46.8979 234.306C47.9134 233.661 48.7965 233.22 48.8583 233.326Z" fill="#263238"/>
<path d="M56.806 229.749C56.8413 229.873 55.9759 230.323 54.8544 230.756C53.7417 231.189 52.788 231.453 52.735 231.339C52.682 231.224 53.5563 230.773 54.6866 230.332C55.8169 229.89 56.7707 229.625 56.806 229.749Z" fill="#263238"/>
<path d="M63.1818 228.177C63.1995 228.301 62.7403 228.495 62.1398 228.61C61.5481 228.725 61.0448 228.716 61.0183 228.592C60.9918 228.469 61.4598 228.274 62.0603 228.16C62.6608 228.045 63.1641 228.054 63.1818 228.177Z" fill="#263238"/>
<path d="M16.2267 195.022L0.26532 236.295L61.4952 259.974L77.4565 218.701L16.2267 195.022Z" fill="#66B9AA"/>
<path d="M61.4951 260.003L61.4775 259.994L0.227234 236.31L0.236046 236.293L16.2021 195L16.2198 195.009L77.47 218.693L77.4612 218.711L61.4951 260.003ZM0.280216 236.284L61.4686 259.942L77.4082 218.711L16.2198 195.053L0.280216 236.284Z" fill="#263238"/>
<path d="M77.4435 219.276C77.4523 219.293 77.1786 219.408 76.6576 219.603C76.0836 219.814 75.3241 220.088 74.3792 220.433C72.3305 221.157 69.4605 222.163 65.9458 223.4C58.7488 225.872 48.8848 229.255 37.97 232.999L37.7404 233.078L37.6167 232.866C37.5196 232.707 37.4225 232.531 37.3165 232.354C31.4617 222.252 26.1632 213.103 22.2865 206.418C20.4144 203.124 18.8867 200.44 17.7916 198.523C17.2971 197.623 16.8997 196.907 16.5995 196.36C16.3346 195.865 16.2021 195.6 16.2198 195.583C16.2374 195.574 16.4052 195.821 16.7054 196.298C17.0322 196.828 17.4649 197.526 17.9948 198.4C19.1251 200.298 20.7146 202.948 22.6574 206.197C26.5694 212.865 31.9209 221.978 37.8375 232.045C37.9435 232.222 38.0406 232.398 38.1377 232.557L37.7845 232.425C48.7258 228.742 58.5987 225.422 65.8222 222.994C69.3634 221.828 72.251 220.883 74.3174 220.203C75.28 219.903 76.0483 219.656 76.6399 219.47C77.1609 219.329 77.4435 219.249 77.4435 219.276Z" fill="#263238"/>
<path d="M0.253742 236.867C0.174265 236.725 6.96512 232.849 15.425 228.204C23.8849 223.568 30.7994 219.92 30.8789 220.071C30.9583 220.212 24.1675 224.089 15.7076 228.734C7.25655 233.37 0.333219 237.008 0.253742 236.867Z" fill="#263238"/>
<path d="M51.4369 227.427C51.5959 227.382 53.9714 234.756 56.7442 243.896C59.5171 253.045 61.6453 260.498 61.4863 260.542C61.3274 260.586 58.9519 253.212 56.1702 244.073C53.3973 234.924 51.278 227.471 51.4369 227.427Z" fill="#263238"/>
<path d="M371.9 423.222L319.426 423.191C313.114 423.187 308 418.075 308 411.774L308.027 280.413C308.027 274.107 313.15 269 319.466 269L371.94 269.031C378.252 269.036 383.366 274.147 383.366 280.449L383.339 411.809C383.339 418.116 378.216 423.227 371.9 423.222Z" fill="#263238"/>
<path d="M371.887 273.679L361.712 273.674C360.349 273.674 359.242 274.829 359.242 276.252V278.094C359.242 279.517 358.134 280.672 356.771 280.672L336.939 280.658C335.577 280.658 334.469 279.503 334.469 278.076V276.234C334.469 274.811 333.362 273.656 331.999 273.652L328.422 273.647L319.515 273.643C315.093 273.638 311.506 277.22 311.506 281.635L311.479 409.851C311.479 414.267 315.062 417.844 319.479 417.848L371.851 417.879C376.273 417.884 379.86 414.302 379.86 409.887L379.886 281.666C379.886 277.264 376.304 273.683 371.887 273.679Z" fill="white"/>
<path d="M373.432 286.626C373.432 286.662 372.11 286.697 370.475 286.711C368.845 286.724 367.518 286.706 367.518 286.675C367.518 286.639 368.84 286.604 370.475 286.59C372.11 286.577 373.432 286.595 373.432 286.626Z" fill="#263238"/>
<path d="M373.446 288.138C373.446 288.174 372.123 288.209 370.493 288.223C368.863 288.236 367.536 288.218 367.536 288.187C367.536 288.151 368.858 288.116 370.493 288.102C372.123 288.084 373.446 288.102 373.446 288.138Z" fill="#263238"/>
<path d="M373.459 289.645C373.459 289.681 372.137 289.717 370.502 289.73C368.872 289.743 367.545 289.726 367.545 289.694C367.545 289.659 368.867 289.623 370.502 289.61C372.132 289.596 373.459 289.614 373.459 289.645Z" fill="#263238"/>
<path d="M319.671 291.371C319.676 291.367 319.716 291.367 319.796 291.362C319.895 291.358 320.006 291.354 320.14 291.349C320.462 291.34 320.886 291.331 321.404 291.318L321.369 291.354C321.364 291.073 321.36 290.769 321.355 290.439C321.355 290.27 321.342 290.109 321.355 289.913C321.391 289.717 321.565 289.543 321.78 289.525C321.985 289.52 322.164 289.512 322.383 289.52C322.61 289.547 322.803 289.766 322.798 290.007C322.803 290.435 322.807 290.876 322.811 291.34L322.753 291.282C323.263 291.278 323.799 291.273 324.344 291.264L324.281 291.327C324.277 290.685 324.268 290.024 324.263 289.347C324.263 289.177 324.259 289.008 324.259 288.843C324.259 288.686 324.165 288.584 324.035 288.468C323.799 288.236 323.566 288.009 323.339 287.781C323.111 287.558 322.887 287.335 322.669 287.121C322.557 287.014 322.45 286.907 322.342 286.8C322.231 286.693 322.141 286.581 322.012 286.555C321.887 286.519 321.748 286.546 321.646 286.626C321.547 286.706 321.445 286.822 321.351 286.916C321.154 287.112 320.962 287.304 320.779 287.491C320.422 287.866 320.047 288.205 319.774 288.526C319.658 288.704 319.703 288.923 319.694 289.119C319.694 289.315 319.694 289.503 319.694 289.681C319.694 290.024 319.689 290.323 319.689 290.582C319.685 290.814 319.685 291.001 319.685 291.157C319.68 291.296 319.676 291.367 319.671 291.371C319.667 291.376 319.667 291.309 319.662 291.18C319.658 291.028 319.654 290.841 319.645 290.613C319.64 290.354 319.631 290.051 319.622 289.703C319.618 289.525 319.613 289.333 319.613 289.132C319.613 289.03 319.609 288.927 319.609 288.82C319.609 288.709 319.636 288.593 319.698 288.486C319.993 288.124 320.346 287.808 320.708 287.424C320.891 287.237 321.078 287.045 321.275 286.844C321.378 286.746 321.463 286.644 321.583 286.541C321.713 286.443 321.887 286.407 322.043 286.452C322.213 286.488 322.325 286.626 322.427 286.724C322.535 286.831 322.646 286.938 322.753 287.045C322.972 287.259 323.2 287.482 323.428 287.705C323.656 287.928 323.888 288.156 324.125 288.388C324.183 288.446 324.25 288.495 324.303 288.579C324.357 288.66 324.384 288.753 324.388 288.847C324.388 289.016 324.393 289.186 324.393 289.355C324.397 290.033 324.402 290.698 324.406 291.336V291.398H324.344C323.794 291.403 323.263 291.407 322.753 291.407H322.695V291.349C322.691 290.89 322.691 290.444 322.686 290.016C322.695 289.824 322.543 289.654 322.365 289.627C322.182 289.619 321.967 289.623 321.789 289.627C321.619 289.641 321.476 289.779 321.445 289.935C321.431 290.096 321.44 290.283 321.436 290.444C321.436 290.774 321.436 291.077 321.436 291.358V291.394H321.4C320.873 291.389 320.444 291.385 320.118 291.385C319.989 291.38 319.877 291.38 319.783 291.38C319.707 291.376 319.671 291.371 319.671 291.371Z" fill="#263238"/>
<path d="M368.841 309.493H321.58C319.217 309.493 317.296 307.58 317.296 305.216V303.628C317.296 301.269 319.212 299.351 321.58 299.351H368.841C371.204 299.351 373.125 301.265 373.125 303.628V305.216C373.125 307.58 371.209 309.493 368.841 309.493Z" fill="#F5F5F5"/>
<path d="M368.84 309.492C368.84 309.492 368.948 309.479 369.162 309.466C369.372 309.448 369.685 309.403 370.082 309.287C370.475 309.158 370.949 308.953 371.427 308.582C371.905 308.221 372.378 307.682 372.7 306.972C372.856 306.616 372.99 306.223 373.035 305.791C373.093 305.362 373.07 304.903 373.075 304.426C373.066 303.949 373.097 303.445 373.008 302.941C372.923 302.437 372.74 301.924 372.454 301.455C371.887 300.514 370.873 299.729 369.636 299.502C369.024 299.386 368.367 299.439 367.693 299.431C367.023 299.431 366.335 299.435 365.629 299.435C354.351 299.444 338.78 299.453 321.579 299.466C320.529 299.466 319.493 299.877 318.738 300.586C317.974 301.29 317.501 302.276 317.416 303.293C317.38 303.797 317.407 304.332 317.398 304.845C317.384 305.367 317.411 305.866 317.554 306.352C317.822 307.32 318.456 308.172 319.283 308.716C319.694 308.993 320.158 309.185 320.636 309.292C321.114 309.403 321.605 309.403 322.106 309.403C323.102 309.403 324.089 309.403 325.063 309.403C327.015 309.403 328.922 309.408 330.789 309.408C338.244 309.417 344.953 309.425 350.594 309.43C356.227 309.443 360.787 309.457 363.945 309.461C365.517 309.47 366.741 309.474 367.576 309.479C367.987 309.483 368.3 309.488 368.519 309.488C368.733 309.483 368.84 309.492 368.84 309.492C368.84 309.492 368.733 309.501 368.519 309.501C368.3 309.506 367.987 309.506 367.576 309.51C366.741 309.515 365.517 309.519 363.945 309.528C360.787 309.537 356.227 309.546 350.594 309.559C344.957 309.564 338.244 309.573 330.789 309.582C328.926 309.582 327.015 309.586 325.063 309.586C324.089 309.586 323.102 309.586 322.106 309.586C321.614 309.59 321.092 309.59 320.591 309.47C320.091 309.359 319.604 309.153 319.171 308.868C318.305 308.297 317.639 307.41 317.358 306.393C317.206 305.889 317.179 305.34 317.192 304.827C317.201 304.305 317.174 303.797 317.21 303.257C317.295 302.191 317.795 301.152 318.595 300.416C319.39 299.671 320.475 299.243 321.579 299.243C338.78 299.257 354.351 299.266 365.629 299.274C366.335 299.274 367.023 299.279 367.693 299.279C368.358 299.292 369.019 299.239 369.658 299.364C370.935 299.605 371.972 300.421 372.548 301.389C372.843 301.875 373.026 302.396 373.111 302.918C373.2 303.44 373.164 303.944 373.169 304.421C373.164 304.899 373.182 305.358 373.12 305.799C373.066 306.237 372.927 306.642 372.767 307.004C372.432 307.726 371.945 308.266 371.458 308.632C370.971 309.002 370.489 309.207 370.091 309.327C369.689 309.439 369.372 309.479 369.158 309.488C368.948 309.492 368.84 309.492 368.84 309.492Z" fill="#263238"/>
<path d="M369.702 304.18C369.685 304.18 369.685 304.015 369.604 303.743C369.528 303.471 369.336 303.079 368.93 302.78C368.537 302.477 367.889 302.312 367.268 302.548C366.652 302.762 366.12 303.418 366.125 304.185C366.116 304.952 366.647 305.608 367.268 305.822C367.889 306.054 368.537 305.889 368.93 305.59C369.336 305.291 369.528 304.899 369.604 304.626C369.685 304.345 369.685 304.18 369.702 304.18C369.711 304.18 369.716 304.221 369.716 304.301C369.72 304.377 369.711 304.493 369.685 304.64C369.627 304.93 369.452 305.358 369.019 305.701C368.604 306.045 367.898 306.245 367.201 306C366.513 305.773 365.91 305.041 365.919 304.185C365.91 303.329 366.513 302.597 367.201 302.37C367.898 302.12 368.604 302.325 369.019 302.669C369.448 303.007 369.627 303.44 369.685 303.73C369.716 303.877 369.72 303.993 369.716 304.069C369.716 304.14 369.711 304.18 369.702 304.18Z" fill="#263238"/>
<path d="M370.716 307.347C370.676 307.387 370.27 307.017 369.814 306.526C369.359 306.036 369.024 305.603 369.068 305.568C369.108 305.527 369.515 305.898 369.97 306.388C370.422 306.879 370.757 307.307 370.716 307.347Z" fill="#263238"/>
<path d="M324.835 303.409H323.839V303.15H326.13V303.409H325.134V305.978H324.835V303.409Z" fill="#E0E0E0"/>
<path d="M328.176 305.006H326.394C326.425 305.452 326.764 305.746 327.233 305.746C327.493 305.746 327.725 305.652 327.886 305.465L328.046 305.652C327.854 305.88 327.56 306 327.225 306C326.559 306 326.108 305.545 326.108 304.916C326.108 304.288 326.55 303.837 327.149 303.837C327.747 303.837 328.18 304.279 328.18 304.916C328.18 304.939 328.176 304.97 328.176 305.006ZM326.398 304.791H327.908C327.872 304.377 327.568 304.082 327.153 304.082C326.738 304.082 326.434 304.372 326.398 304.791Z" fill="#E0E0E0"/>
<path d="M330.065 305.978L329.391 305.09L328.712 305.978H328.39L329.23 304.885L328.43 303.85H328.752L329.391 304.684L330.03 303.85H330.347L329.547 304.885L330.396 305.978H330.065Z" fill="#E0E0E0"/>
<path d="M331.99 305.849C331.879 305.951 331.709 306 331.539 306C331.137 306 330.914 305.773 330.914 305.38V304.096H330.534V303.855H330.914V303.391H331.2V303.855H331.847V304.096H331.2V305.367C331.2 305.617 331.329 305.755 331.566 305.755C331.682 305.755 331.803 305.719 331.883 305.648L331.99 305.849Z" fill="#E0E0E0"/>
<path d="M331.874 317.833H319.654V330.035H331.874V317.833Z" fill="#66B9AA"/>
<path d="M355.378 319.148C355.378 319.206 351.291 319.251 346.253 319.251C341.21 319.251 337.127 319.206 337.127 319.148C337.127 319.09 341.214 319.046 346.253 319.046C351.291 319.046 355.378 319.09 355.378 319.148Z" fill="#66B9AA"/>
<path d="M369.93 322.886C369.93 322.944 362.587 322.988 353.529 322.988C344.47 322.988 337.127 322.944 337.127 322.886C337.127 322.828 344.47 322.783 353.529 322.783C362.587 322.783 369.93 322.832 369.93 322.886Z" fill="#263238"/>
<path d="M369.546 325.557C369.546 325.615 362.288 325.66 353.337 325.66C344.381 325.66 337.127 325.615 337.127 325.557C337.127 325.499 344.381 325.455 353.337 325.455C362.288 325.455 369.546 325.499 369.546 325.557Z" fill="#263238"/>
<path d="M356.267 328.108C356.267 328.166 351.983 328.211 346.699 328.211C341.411 328.211 337.127 328.166 337.127 328.108C337.127 328.05 341.411 328.006 346.699 328.006C351.983 328.001 356.267 328.05 356.267 328.108Z" fill="#263238"/>
<path d="M331.874 338.161H319.654V350.364H331.874V338.161Z" fill="#66B9AA"/>
<path d="M355.378 339.477C355.378 339.535 351.291 339.579 346.253 339.579C341.21 339.579 337.127 339.535 337.127 339.477C337.127 339.419 341.214 339.374 346.253 339.374C351.291 339.37 355.378 339.419 355.378 339.477Z" fill="#66B9AA"/>
<path d="M369.93 343.214C369.93 343.272 362.587 343.317 353.529 343.317C344.47 343.317 337.127 343.272 337.127 343.214C337.127 343.156 344.47 343.112 353.529 343.112C362.587 343.112 369.93 343.156 369.93 343.214Z" fill="#263238"/>
<path d="M369.546 345.886C369.546 345.944 362.288 345.989 353.337 345.989C344.381 345.989 337.127 345.944 337.127 345.886C337.127 345.828 344.381 345.783 353.337 345.783C362.288 345.783 369.546 345.828 369.546 345.886Z" fill="#263238"/>
<path d="M356.267 348.433C356.267 348.491 351.983 348.535 346.699 348.535C341.411 348.535 337.127 348.491 337.127 348.433C337.127 348.375 341.411 348.33 346.699 348.33C351.983 348.33 356.267 348.375 356.267 348.433Z" fill="#263238"/>
<path d="M331.874 358.49H319.654V370.692H331.874V358.49Z" fill="#66B9AA"/>
<path d="M355.378 359.801C355.378 359.859 351.291 359.904 346.253 359.904C341.21 359.904 337.127 359.859 337.127 359.801C337.127 359.743 341.214 359.699 346.253 359.699C351.291 359.699 355.378 359.743 355.378 359.801Z" fill="#66B9AA"/>
<path d="M369.93 363.543C369.93 363.601 362.587 363.646 353.529 363.646C344.47 363.646 337.127 363.601 337.127 363.543C337.127 363.485 344.47 363.441 353.529 363.441C362.587 363.441 369.93 363.485 369.93 363.543Z" fill="#263238"/>
<path d="M369.546 366.215C369.546 366.273 362.288 366.317 353.337 366.317C344.381 366.317 337.127 366.273 337.127 366.215C337.127 366.157 344.381 366.112 353.337 366.112C362.288 366.112 369.546 366.157 369.546 366.215Z" fill="#263238"/>
<path d="M356.267 368.761C356.267 368.819 351.983 368.864 346.699 368.864C341.411 368.864 337.127 368.819 337.127 368.761C337.127 368.703 341.411 368.659 346.699 368.659C351.983 368.659 356.267 368.703 356.267 368.761Z" fill="#263238"/>
<path d="M331.874 378.819H319.654V391.021H331.874V378.819Z" fill="#66B9AA"/>
<path d="M355.378 380.13C355.378 380.188 351.291 380.232 346.253 380.232C341.21 380.232 337.127 380.188 337.127 380.13C337.127 380.072 341.214 380.027 346.253 380.027C351.291 380.027 355.378 380.072 355.378 380.13Z" fill="#455A64"/>
<path d="M369.93 383.872C369.93 383.93 362.587 383.974 353.529 383.974C344.47 383.974 337.127 383.93 337.127 383.872C337.127 383.814 344.47 383.769 353.529 383.769C362.587 383.765 369.93 383.814 369.93 383.872Z" fill="#263238"/>
<path d="M369.546 386.543C369.546 386.601 362.288 386.646 353.337 386.646C344.381 386.646 337.127 386.601 337.127 386.543C337.127 386.485 344.381 386.441 353.337 386.441C362.288 386.436 369.546 386.485 369.546 386.543Z" fill="#263238"/>
<path d="M356.267 389.09C356.267 389.148 351.983 389.193 346.699 389.193C341.411 389.193 337.127 389.148 337.127 389.09C337.127 389.032 341.411 388.987 346.699 388.987C351.983 388.987 356.267 389.032 356.267 389.09Z" fill="#263238"/>
<path d="M331.874 399.143H319.654V411.345H331.874V399.143Z" fill="#E0E0E0"/>
<path d="M355.378 400.459C355.378 400.516 351.291 400.561 346.253 400.561C341.21 400.561 337.127 400.516 337.127 400.459C337.127 400.401 341.214 400.356 346.253 400.356C351.291 400.356 355.378 400.401 355.378 400.459Z" fill="#E0E0E0"/>
<path d="M369.93 404.196C369.93 404.254 362.587 404.299 353.529 404.299C344.47 404.299 337.127 404.254 337.127 404.196C337.127 404.138 344.47 404.093 353.529 404.093C362.587 404.093 369.93 404.142 369.93 404.196Z" fill="#EBEBEB"/>
<path d="M369.546 406.868C369.546 406.926 362.288 406.97 353.337 406.97C344.381 406.97 337.127 406.926 337.127 406.868C337.127 406.81 344.381 406.765 353.337 406.765C362.288 406.765 369.546 406.81 369.546 406.868Z" fill="#EBEBEB"/>
<path d="M356.267 409.419C356.267 409.477 351.983 409.521 346.699 409.521C341.411 409.521 337.127 409.477 337.127 409.419C337.127 409.361 341.411 409.316 346.699 409.316C351.983 409.312 356.267 409.361 356.267 409.419Z" fill="#EBEBEB"/>
<g opacity="0.3">
<g opacity="0.3">
<path opacity="0.3" d="M331.874 378.819H319.654V391.021H331.874V378.819Z" fill="black"/>
</g>
</g>
<g opacity="0.3">
<g opacity="0.3">
<path opacity="0.3" d="M331.874 338.161H319.654V350.364H331.874V338.161Z" fill="black"/>
</g>
</g>
<defs>
<linearGradient id="paint0_linear" x1="340.5" y1="-33" x2="340.5" y2="504" gradientUnits="userSpaceOnUse">
<stop stop-color="#66B9AA"/>
<stop offset="1" stop-color="#137C69"/>
</linearGradient>
</defs>
</svg>
