<svg width="24" height="17" viewBox="0 0 24 17" fill="none" xmlns="http://www.w3.org/2000/svg">
<path d="M22.2857 0H1.71429C1.25963 0 0.823593 0.179107 0.502103 0.497918C0.180612 0.81673 0 1.24913 0 1.7V15.3C0 15.7509 0.180612 16.1833 0.502103 16.5021C0.823593 16.8209 1.25963 17 1.71429 17H22.2857C22.7404 17 23.1764 16.8209 23.4979 16.5021C23.8194 16.1833 24 15.7509 24 15.3V1.7C24 1.24913 23.8194 0.81673 23.4979 0.497918C23.1764 0.179107 22.7404 0 22.2857 0ZM20.4 1.7L12 7.463L3.6 1.7H20.4ZM1.71429 15.3V2.4735L11.5114 9.197C11.6549 9.29571 11.8254 9.3486 12 9.3486C12.1746 9.3486 12.3451 9.29571 12.4886 9.197L22.2857 2.4735V15.3H1.71429Z" fill="#152836"/>
</svg>
