<svg width="156" height="27" viewBox="0 0 156 27" fill="none" xmlns="http://www.w3.org/2000/svg">
<path d="M39.878 20.162C39.122 20.162 38.444 20.036 37.844 19.784C37.244 19.52 36.77 19.16 36.422 18.704C36.074 18.236 35.882 17.702 35.846 17.102H37.538C37.586 17.594 37.814 17.996 38.222 18.308C38.642 18.62 39.188 18.776 39.86 18.776C40.484 18.776 40.976 18.638 41.336 18.362C41.696 18.086 41.876 17.738 41.876 17.318C41.876 16.886 41.684 16.568 41.3 16.364C40.916 16.148 40.322 15.938 39.518 15.734C38.786 15.542 38.186 15.35 37.718 15.158C37.262 14.954 36.866 14.66 36.53 14.276C36.206 13.88 36.044 13.364 36.044 12.728C36.044 12.224 36.194 11.762 36.494 11.342C36.794 10.922 37.22 10.592 37.772 10.352C38.324 10.1 38.954 9.974 39.662 9.974C40.754 9.974 41.636 10.25 42.308 10.802C42.98 11.354 43.34 12.11 43.388 13.07H41.75C41.714 12.554 41.504 12.14 41.12 11.828C40.748 11.516 40.244 11.36 39.608 11.36C39.02 11.36 38.552 11.486 38.204 11.738C37.856 11.99 37.682 12.32 37.682 12.728C37.682 13.052 37.784 13.322 37.988 13.538C38.204 13.742 38.468 13.91 38.78 14.042C39.104 14.162 39.548 14.3 40.112 14.456C40.82 14.648 41.396 14.84 41.84 15.032C42.284 15.212 42.662 15.488 42.974 15.86C43.298 16.232 43.466 16.718 43.478 17.318C43.478 17.858 43.328 18.344 43.028 18.776C42.728 19.208 42.302 19.55 41.75 19.802C41.21 20.042 40.586 20.162 39.878 20.162ZM54.5383 10.136V20H52.9003V18.542C52.5883 19.046 52.1503 19.442 51.5863 19.73C51.0343 20.006 50.4223 20.144 49.7503 20.144C48.9823 20.144 48.2923 19.988 47.6803 19.676C47.0683 19.352 46.5823 18.872 46.2223 18.236C45.8743 17.6 45.7003 16.826 45.7003 15.914V10.136H47.3203V15.698C47.3203 16.67 47.5663 17.42 48.0583 17.948C48.5503 18.464 49.2223 18.722 50.0743 18.722C50.9503 18.722 51.6403 18.452 52.1443 17.912C52.6483 17.372 52.9003 16.586 52.9003 15.554V10.136H54.5383ZM61.372 9.974C62.224 9.974 62.968 10.16 63.604 10.532C64.252 10.904 64.732 11.372 65.044 11.936V10.136H66.7V20.216C66.7 21.116 66.508 21.914 66.124 22.61C65.74 23.318 65.188 23.87 64.468 24.266C63.76 24.662 62.932 24.86 61.984 24.86C60.688 24.86 59.608 24.554 58.744 23.942C57.88 23.33 57.37 22.496 57.214 21.44H58.834C59.014 22.04 59.386 22.52 59.95 22.88C60.514 23.252 61.192 23.438 61.984 23.438C62.884 23.438 63.616 23.156 64.18 22.592C64.756 22.028 65.044 21.236 65.044 20.216V18.146C64.72 18.722 64.24 19.202 63.604 19.586C62.968 19.97 62.224 20.162 61.372 20.162C60.496 20.162 59.698 19.946 58.978 19.514C58.27 19.082 57.712 18.476 57.304 17.696C56.896 16.916 56.692 16.028 56.692 15.032C56.692 14.024 56.896 13.142 57.304 12.386C57.712 11.618 58.27 11.024 58.978 10.604C59.698 10.184 60.496 9.974 61.372 9.974ZM65.044 15.05C65.044 14.306 64.894 13.658 64.594 13.106C64.294 12.554 63.886 12.134 63.37 11.846C62.866 11.546 62.308 11.396 61.696 11.396C61.084 11.396 60.526 11.54 60.022 11.828C59.518 12.116 59.116 12.536 58.816 13.088C58.516 13.64 58.366 14.288 58.366 15.032C58.366 15.788 58.516 16.448 58.816 17.012C59.116 17.564 59.518 17.99 60.022 18.29C60.526 18.578 61.084 18.722 61.696 18.722C62.308 18.722 62.866 18.578 63.37 18.29C63.886 17.99 64.294 17.564 64.594 17.012C64.894 16.448 65.044 15.794 65.044 15.05ZM68.856 15.032C68.856 14.024 69.06 13.142 69.468 12.386C69.876 11.618 70.434 11.024 71.142 10.604C71.862 10.184 72.66 9.974 73.536 9.974C74.4 9.974 75.15 10.16 75.786 10.532C76.422 10.904 76.896 11.372 77.208 11.936V10.136H78.864V20H77.208V18.164C76.884 18.74 76.398 19.22 75.75 19.604C75.114 19.976 74.37 20.162 73.518 20.162C72.642 20.162 71.85 19.946 71.142 19.514C70.434 19.082 69.876 18.476 69.468 17.696C69.06 16.916 68.856 16.028 68.856 15.032ZM77.208 15.05C77.208 14.306 77.058 13.658 76.758 13.106C76.458 12.554 76.05 12.134 75.534 11.846C75.03 11.546 74.472 11.396 73.86 11.396C73.248 11.396 72.69 11.54 72.186 11.828C71.682 12.116 71.28 12.536 70.98 13.088C70.68 13.64 70.53 14.288 70.53 15.032C70.53 15.788 70.68 16.448 70.98 17.012C71.28 17.564 71.682 17.99 72.186 18.29C72.69 18.578 73.248 18.722 73.86 18.722C74.472 18.722 75.03 18.578 75.534 18.29C76.05 17.99 76.458 17.564 76.758 17.012C77.058 16.448 77.208 15.794 77.208 15.05ZM83.2701 11.738C83.5581 11.174 83.9661 10.736 84.4941 10.424C85.0341 10.112 85.6881 9.956 86.4561 9.956V11.648H86.0241C84.1881 11.648 83.2701 12.644 83.2701 14.636V20H81.6321V10.136H83.2701V11.738ZM88.8689 20.108C88.5569 20.108 88.2929 20 88.0769 19.784C87.8609 19.568 87.7529 19.304 87.7529 18.992C87.7529 18.68 87.8609 18.416 88.0769 18.2C88.2929 17.984 88.5569 17.876 88.8689 17.876C89.1689 17.876 89.4209 17.984 89.6249 18.2C89.8409 18.416 89.9489 18.68 89.9489 18.992C89.9489 19.304 89.8409 19.568 89.6249 19.784C89.4209 20 89.1689 20.108 88.8689 20.108ZM95.6182 20.162C94.8622 20.162 94.1842 20.036 93.5842 19.784C92.9842 19.52 92.5102 19.16 92.1622 18.704C91.8142 18.236 91.6222 17.702 91.5862 17.102H93.2782C93.3262 17.594 93.5542 17.996 93.9622 18.308C94.3822 18.62 94.9282 18.776 95.6002 18.776C96.2242 18.776 96.7162 18.638 97.0762 18.362C97.4362 18.086 97.6162 17.738 97.6162 17.318C97.6162 16.886 97.4242 16.568 97.0402 16.364C96.6562 16.148 96.0622 15.938 95.2582 15.734C94.5262 15.542 93.9262 15.35 93.4582 15.158C93.0022 14.954 92.6062 14.66 92.2702 14.276C91.9462 13.88 91.7842 13.364 91.7842 12.728C91.7842 12.224 91.9342 11.762 92.2342 11.342C92.5342 10.922 92.9602 10.592 93.5122 10.352C94.0642 10.1 94.6942 9.974 95.4022 9.974C96.4942 9.974 97.3762 10.25 98.0482 10.802C98.7202 11.354 99.0802 12.11 99.1282 13.07H97.4902C97.4542 12.554 97.2442 12.14 96.8602 11.828C96.4882 11.516 95.9842 11.36 95.3482 11.36C94.7602 11.36 94.2922 11.486 93.9442 11.738C93.5962 11.99 93.4222 12.32 93.4222 12.728C93.4222 13.052 93.5242 13.322 93.7282 13.538C93.9442 13.742 94.2082 13.91 94.5202 14.042C94.8442 14.162 95.2882 14.3 95.8522 14.456C96.5602 14.648 97.1362 14.84 97.5802 15.032C98.0242 15.212 98.4022 15.488 98.7142 15.86C99.0382 16.232 99.2062 16.718 99.2182 17.318C99.2182 17.858 99.0682 18.344 98.7682 18.776C98.4682 19.208 98.0422 19.55 97.4902 19.802C96.9502 20.042 96.3262 20.162 95.6182 20.162ZM103.529 11.486V17.3C103.529 17.78 103.631 18.122 103.835 18.326C104.039 18.518 104.393 18.614 104.897 18.614H106.103V20H104.627C103.715 20 103.031 19.79 102.575 19.37C102.119 18.95 101.891 18.26 101.891 17.3V11.486H100.613V10.136H101.891V7.652H103.529V10.136H106.103V11.486H103.529ZM107.475 15.032C107.475 14.024 107.679 13.142 108.087 12.386C108.495 11.618 109.053 11.024 109.761 10.604C110.481 10.184 111.279 9.974 112.155 9.974C113.019 9.974 113.769 10.16 114.405 10.532C115.041 10.904 115.515 11.372 115.827 11.936V10.136H117.483V20H115.827V18.164C115.503 18.74 115.017 19.22 114.369 19.604C113.733 19.976 112.989 20.162 112.137 20.162C111.261 20.162 110.469 19.946 109.761 19.514C109.053 19.082 108.495 18.476 108.087 17.696C107.679 16.916 107.475 16.028 107.475 15.032ZM115.827 15.05C115.827 14.306 115.677 13.658 115.377 13.106C115.077 12.554 114.669 12.134 114.153 11.846C113.649 11.546 113.091 11.396 112.479 11.396C111.867 11.396 111.309 11.54 110.805 11.828C110.301 12.116 109.899 12.536 109.599 13.088C109.299 13.64 109.149 14.288 109.149 15.032C109.149 15.788 109.299 16.448 109.599 17.012C109.899 17.564 110.301 17.99 110.805 18.29C111.309 18.578 111.867 18.722 112.479 18.722C113.091 18.722 113.649 18.578 114.153 18.29C114.669 17.99 115.077 17.564 115.377 17.012C115.677 16.448 115.827 15.794 115.827 15.05ZM121.889 11.738C122.177 11.174 122.585 10.736 123.113 10.424C123.653 10.112 124.307 9.956 125.075 9.956V11.648H124.643C122.807 11.648 121.889 12.644 121.889 14.636V20H120.251V10.136H121.889V11.738ZM128.964 11.486V17.3C128.964 17.78 129.066 18.122 129.27 18.326C129.474 18.518 129.828 18.614 130.332 18.614H131.538V20H130.062C129.15 20 128.466 19.79 128.01 19.37C127.554 18.95 127.326 18.26 127.326 17.3V11.486H126.048V10.136H127.326V7.652H128.964V10.136H131.538V11.486H128.964ZM142.271 10.136V20H140.633V18.542C140.321 19.046 139.883 19.442 139.319 19.73C138.767 20.006 138.155 20.144 137.483 20.144C136.715 20.144 136.025 19.988 135.413 19.676C134.801 19.352 134.315 18.872 133.955 18.236C133.607 17.6 133.433 16.826 133.433 15.914V10.136H135.053V15.698C135.053 16.67 135.299 17.42 135.791 17.948C136.283 18.464 136.955 18.722 137.807 18.722C138.683 18.722 139.373 18.452 139.877 17.912C140.381 17.372 140.633 16.586 140.633 15.554V10.136H142.271ZM146.674 11.954C146.998 11.39 147.478 10.922 148.114 10.55C148.762 10.166 149.512 9.974 150.364 9.974C151.24 9.974 152.032 10.184 152.74 10.604C153.46 11.024 154.024 11.618 154.432 12.386C154.84 13.142 155.044 14.024 155.044 15.032C155.044 16.028 154.84 16.916 154.432 17.696C154.024 18.476 153.46 19.082 152.74 19.514C152.032 19.946 151.24 20.162 150.364 20.162C149.524 20.162 148.78 19.976 148.132 19.604C147.496 19.22 147.01 18.746 146.674 18.182V24.68H145.036V10.136H146.674V11.954ZM153.37 15.032C153.37 14.288 153.22 13.64 152.92 13.088C152.62 12.536 152.212 12.116 151.696 11.828C151.192 11.54 150.634 11.396 150.022 11.396C149.422 11.396 148.864 11.546 148.348 11.846C147.844 12.134 147.436 12.56 147.124 13.124C146.824 13.676 146.674 14.318 146.674 15.05C146.674 15.794 146.824 16.448 147.124 17.012C147.436 17.564 147.844 17.99 148.348 18.29C148.864 18.578 149.422 18.722 150.022 18.722C150.634 18.722 151.192 18.578 151.696 18.29C152.212 17.99 152.62 17.564 152.92 17.012C153.22 16.448 153.37 15.788 153.37 15.032Z" fill="#152836"/>
<path d="M11.9968 6.84284C8.58954 6.84284 5.83973 9.5927 5.83973 13C5.83973 16.4073 8.58954 19.1572 11.9968 19.1572C15.404 19.1572 18.1538 16.4073 18.1538 13C18.1538 9.5927 15.404 6.84284 11.9968 6.84284ZM11.9968 17.0017C9.79333 17.0017 7.99515 15.2035 7.99515 13C7.99515 10.7965 9.79333 8.9983 11.9968 8.9983C14.2002 8.9983 15.9984 10.7965 15.9984 13C15.9984 15.2035 14.2002 17.0017 11.9968 17.0017ZM18.406 5.1557C17.6105 5.1557 16.968 5.79813 16.968 6.59367C16.968 7.38921 17.6105 8.03164 18.406 8.03164C19.2015 8.03164 19.8439 7.39221 19.8439 6.59367C19.8442 6.40477 19.8071 6.21767 19.735 6.0431C19.6628 5.86853 19.5569 5.70992 19.4233 5.57634C19.2897 5.44277 19.1311 5.33686 18.9565 5.26468C18.782 5.1925 18.5949 5.15546 18.406 5.1557ZM23.9987 13C23.9987 11.3429 24.0137 9.70077 23.9206 8.04665C23.8275 6.12536 23.3893 4.4202 21.9843 3.01525C20.5764 1.6073 18.8743 1.17201 16.953 1.07895C15.2959 0.985883 13.6539 1.00089 11.9998 1.00089C10.3427 1.00089 8.70061 0.985883 7.04652 1.07895C5.12526 1.17201 3.42014 1.6103 2.01522 3.01525C0.607291 4.42321 0.172005 6.12536 0.0789442 8.04665C-0.014117 9.70377 0.000892919 11.3459 0.000892919 13C0.000892919 14.6541 -0.014117 16.2992 0.0789442 17.9533C0.172005 19.8746 0.610293 21.5798 2.01522 22.9847C3.42314 24.3927 5.12526 24.828 7.04652 24.9211C8.70361 25.0141 10.3457 24.9991 11.9998 24.9991C13.6569 24.9991 15.2989 25.0141 16.953 24.9211C18.8743 24.828 20.5794 24.3897 21.9843 22.9847C23.3923 21.5768 23.8275 19.8746 23.9206 17.9533C24.0167 16.2992 23.9987 14.6571 23.9987 13ZM21.3569 20.0788C21.1378 20.6252 20.8736 21.0334 20.4503 21.4537C20.0271 21.877 19.6218 22.1412 19.0754 22.3603C17.4964 22.9877 13.7469 22.8467 11.9968 22.8467C10.2466 22.8467 6.49416 22.9877 4.91512 22.3633C4.36876 22.1442 3.96049 21.88 3.54022 21.4567C3.11694 21.0334 2.85277 20.6282 2.63362 20.0818C2.00921 18.4997 2.15031 14.7502 2.15031 13C2.15031 11.2498 2.00921 7.49728 2.63362 5.91822C2.85277 5.37185 3.11694 4.96357 3.54022 4.54329C3.9635 4.123 4.36876 3.85582 4.91512 3.63667C6.49416 3.01225 10.2466 3.15335 11.9968 3.15335C13.7469 3.15335 17.4994 3.01225 19.0784 3.63667C19.6248 3.85582 20.0331 4.12 20.4533 4.54329C20.8766 4.96657 21.1408 5.37185 21.3599 5.91822C21.9843 7.49728 21.8432 11.2498 21.8432 13C21.8432 14.7502 21.9843 18.4997 21.3569 20.0788Z" fill="#152836"/>
</svg>
