<svg width="61" height="61" viewBox="0 0 61 61" fill="none" xmlns="http://www.w3.org/2000/svg">
<circle cx="30.5" cy="30.5" r="30.5" fill="url(#paint0_linear)"/>
<path d="M15.3753 41.5011L18.5352 38.4474L20.9659 40.7964L17.806 43.8501L15.3753 41.5011ZM28.258 48V43.0671H31.742V48H28.258ZM16.1855 28.0336V31.4004H11V28.0336H16.1855ZM35.226 21.0649C36.7925 21.9523 38.0483 23.1529 38.9936 24.6667C39.9389 26.1805 40.4115 27.8509 40.4115 29.6779C40.4115 32.4444 39.3987 34.8065 37.3731 36.764C35.3475 38.7215 32.9033 39.7002 30.0405 39.7002C27.1777 39.7002 24.7335 38.7215 22.7079 36.764C20.6823 34.8065 19.6695 32.4444 19.6695 29.6779C19.6695 27.8509 20.1286 26.1805 21.0469 24.6667C21.9652 23.1529 23.2345 21.9523 24.855 21.0649V13H35.226V21.0649ZM43.8145 28.0336H49V31.4004H43.8145V28.0336ZM39.0341 40.7964L41.4648 38.5257L44.6247 41.5011L42.194 43.8501L39.0341 40.7964Z" fill="white"/>
<defs>
<linearGradient id="paint0_linear" x1="30.5" y1="0" x2="30.5" y2="61" gradientUnits="userSpaceOnUse">
<stop stop-color="#97E2D4"/>
<stop offset="1" stop-color="#3CA894"/>
</linearGradient>
</defs>
</svg>
