<svg width="131" height="54" viewBox="0 0 131 54" fill="none" xmlns="http://www.w3.org/2000/svg">
<path fill-rule="evenodd" clip-rule="evenodd" d="M21.9915 0L1.91326 4.43286C1.37065 4.55269 0.88538 4.85275 0.537544 5.28351C0.189708 5.71427 9.53888e-05 6.24998 0 6.80223V31.0494C0.000577536 33.4469 0.59679 35.8071 1.73574 37.9207C2.87468 40.0343 4.52114 41.836 6.52903 43.1657L21.9915 53.4079L37.454 43.1657C39.4622 41.8357 41.1089 40.0337 42.2478 37.9197C43.3868 35.8056 43.9828 33.4449 43.983 31.047V6.80223C43.9829 6.24998 43.7933 5.71427 43.4454 5.28351C43.0976 4.85275 42.6123 4.55269 42.0697 4.43286L21.9915 0ZM16.902 20.4643C16.902 22.2882 18.2781 23.4594 22.557 24.5921C26.8359 25.7248 31.4164 27.5871 31.4164 33.0396C31.4164 36.9754 28.4947 39.1449 24.819 39.8552V41.1032C24.819 42.6967 23.556 43.983 21.9915 43.983C20.427 43.983 19.164 42.6967 19.164 41.1032V39.8168C16.3366 39.2025 13.8295 37.6282 12.7551 34.9595C12.2838 33.7692 13.1698 32.4637 14.4327 32.4637H14.9605C15.7334 32.4637 16.3743 33.0012 16.657 33.75C17.279 35.3627 18.8813 36.4954 21.9915 36.4954C26.1573 36.4954 27.081 34.3835 27.081 33.0588C27.081 31.2733 26.1385 29.5838 21.426 28.4319C16.1669 27.1455 12.5666 24.9377 12.5666 20.5027C12.5666 16.7973 15.5072 14.3783 19.164 13.5719V12.3048C19.164 10.7113 20.427 9.42494 21.9915 9.42494C23.556 9.42494 24.819 10.7113 24.819 12.3048V13.6295C27.7596 14.3591 29.6068 16.2406 30.3985 18.506C30.8321 19.6964 29.9461 20.9443 28.7021 20.9443H28.1366C27.3449 20.9443 26.7228 20.3683 26.4966 19.6004C26.0065 17.9493 24.6682 16.9125 21.9915 16.9125C18.8059 16.9125 16.902 18.3716 16.902 20.4643Z" fill="#848D95"/>
<path d="M56.6341 35.6767H52.0362V17.9648H56.6341V24.9231H58.933L62.9179 17.9648H67.7712L62.7646 26.6943L67.7456 35.6767H62.8923L58.933 28.4654H56.6341V35.6767Z" fill="#848D95"/>
<path d="M74.2793 25.1761C73.5981 25.1761 73.2575 25.5135 73.2575 26.1882V27.5799H77.5999V26.1882C77.5999 25.5135 77.2594 25.1761 76.5782 25.1761H74.2793ZM81.5592 35.4237C78.2726 35.761 75.2925 35.9297 72.6189 35.9297C71.4609 35.9297 70.5328 35.5839 69.8346 34.8923C69.1364 34.2007 68.7873 33.2814 68.7873 32.1343V26.0617C68.7873 24.7966 69.145 23.8098 69.8602 23.1013C70.5924 22.3759 71.5972 22.0133 72.8743 22.0133H77.9831C79.2603 22.0133 80.2565 22.3759 80.9717 23.1013C81.704 23.8098 82.0701 24.7966 82.0701 26.0617V30.7427H73.2575V31.7548C73.2575 32.0078 73.3427 32.2187 73.5129 32.3874C73.6832 32.556 73.8961 32.6404 74.1515 32.6404C75.8374 32.6404 78.3067 32.5139 81.5592 32.2608V35.4237Z" fill="#848D95"/>
<path d="M91.2559 35.6767C90.1149 35.8454 89.0251 35.9297 87.9863 35.9297C86.9645 35.9297 86.1046 35.5839 85.4064 34.8923C84.7082 34.2007 84.3591 33.2814 84.3591 32.1343V17.9648H88.8292V31.5018C88.8292 31.7548 88.9144 31.9656 89.0847 32.1343C89.255 32.303 89.4678 32.3874 89.7233 32.3874H91.2559V35.6767Z" fill="#848D95"/>
<path d="M106.834 31.8813C106.834 33.1464 106.467 34.1417 105.735 34.867C105.02 35.5755 104.024 35.9297 102.747 35.9297H96.8715C95.5943 35.9297 94.5896 35.5755 93.8574 34.867C93.1421 34.1417 92.7845 33.1464 92.7845 31.8813V26.0617C92.7845 24.7966 93.1421 23.8098 93.8574 23.1013C94.5896 22.3759 95.5943 22.0133 96.8715 22.0133H102.747C104.024 22.0133 105.02 22.3759 105.735 23.1013C106.467 23.8098 106.834 24.7966 106.834 26.0617V31.8813ZM102.363 26.4412C102.363 25.7665 102.023 25.4291 101.342 25.4291H98.2764C97.5953 25.4291 97.2547 25.7665 97.2547 26.4412V31.5018C97.2547 32.1765 97.5953 32.5139 98.2764 32.5139H101.342C102.023 32.5139 102.363 32.1765 102.363 31.5018V26.4412Z" fill="#848D95"/>
<path d="M116.026 35.6767C114.885 35.8454 113.796 35.9297 112.757 35.9297C111.735 35.9297 110.875 35.5839 110.177 34.8923C109.479 34.2007 109.13 33.2814 109.13 32.1343V17.9648H113.6V31.5018C113.6 31.7548 113.685 31.9656 113.855 32.1343C114.025 32.303 114.238 32.3874 114.494 32.3874H116.026V35.6767Z" fill="#848D95"/>
<path d="M123.175 32.3874C124.077 32.3874 125.099 32.2187 126.24 31.8813V30.3631H122.536C122.281 30.3631 122.068 30.4475 121.897 30.6162C121.727 30.7849 121.642 30.9957 121.642 31.2487V31.5018C121.642 31.7548 121.727 31.9656 121.897 32.1343C122.068 32.303 122.281 32.3874 122.536 32.3874H123.175ZM118.449 22.5193C121.565 22.182 124.375 22.0133 126.878 22.0133C128.036 22.0133 128.965 22.3591 129.663 23.0507C130.361 23.7423 130.71 24.6616 130.71 25.8087V35.6767H126.751L126.495 34.4116C125.695 34.9345 124.869 35.3225 124.018 35.5755C123.183 35.8117 122.476 35.9297 121.897 35.9297H121.003C119.845 35.9297 118.917 35.5839 118.219 34.8923C117.521 34.2007 117.172 33.2814 117.172 32.1343V30.9957C117.172 29.8487 117.521 28.9293 118.219 28.2377C118.917 27.5461 119.845 27.2003 121.003 27.2003H126.24V26.1882C126.24 25.9352 126.155 25.7243 125.984 25.5556C125.814 25.387 125.601 25.3026 125.346 25.3026C124.239 25.3026 123.013 25.3532 121.668 25.4544C120.339 25.5556 119.266 25.6315 118.449 25.6822V22.5193Z" fill="#848D95"/>
</svg>
