<svg width="112" height="29" viewBox="0 0 112 29" fill="none" xmlns="http://www.w3.org/2000/svg">
<path fill-rule="evenodd" clip-rule="evenodd" d="M2.7558 5.97229C1.02237 8.35787 0 11.2935 0 14.468C0 21.5161 5.03978 27.3871 11.7122 28.6739V22.391C11.7122 20.6787 13.1003 19.2907 14.8125 19.2907C16.5247 19.2907 17.9128 20.6787 17.9128 22.391V28.5234C24.2401 26.978 28.936 21.2714 28.936 14.468C28.936 10.8933 27.6396 7.62138 25.4912 5.09679V13.4346C25.4912 15.1468 24.1032 16.5349 22.391 16.5349C20.6787 16.5349 19.2907 15.1468 19.2907 13.4346V0.823257C17.7822 0.290104 16.159 0 14.468 0C12.5164 0 10.6551 0.386398 8.95637 1.08686V13.4346C8.95637 15.1468 7.56833 16.5349 5.85609 16.5349C4.14385 16.5349 2.7558 15.1468 2.7558 13.4346V5.97229Z" fill="white"/>
<path d="M44.2677 22.2121C43.0787 22.2121 42.0086 22.0072 41.0574 21.5973C40.1062 21.1704 39.3589 20.5727 38.8153 19.8043C38.2718 19.0359 38 18.1393 38 17.1148H41.1084C41.1763 17.8832 41.4736 18.515 42.0001 19.0102C42.5437 19.5055 43.2995 19.7531 44.2677 19.7531C45.2699 19.7531 46.0512 19.514 46.6118 19.0359C47.1723 18.5406 47.4526 17.9088 47.4526 17.1404C47.4526 16.5427 47.2742 16.056 46.9175 15.6803C46.5778 15.3046 46.1447 15.0143 45.6181 14.8094C45.1085 14.6045 44.3951 14.3825 43.4779 14.1434C42.3229 13.8361 41.3802 13.5287 40.6498 13.2213C39.9364 12.8969 39.3249 12.4016 38.8153 11.7357C38.3057 11.0697 38.051 10.1817 38.051 9.07172C38.051 8.04713 38.3057 7.15061 38.8153 6.38217C39.3249 5.61373 40.0383 5.02459 40.9555 4.61476C41.8727 4.20492 42.9344 4 44.1403 4C45.8559 4 47.2572 4.43545 48.3443 5.30635C49.4484 6.16018 50.0599 7.33846 50.1788 8.84119H46.9685C46.9175 8.19228 46.6118 7.63729 46.0512 7.17623C45.4907 6.71516 44.7518 6.48463 43.8346 6.48463C43.0023 6.48463 42.3229 6.69809 41.7963 7.125C41.2698 7.55191 41.0065 8.16667 41.0065 8.96926C41.0065 9.51571 41.1678 9.96824 41.4906 10.3268C41.8303 10.6684 42.2549 10.9416 42.7645 11.1465C43.2741 11.3514 43.9705 11.5734 44.8537 11.8125C46.0258 12.137 46.977 12.4614 47.7073 12.7859C48.4547 13.1103 49.0832 13.6141 49.5928 14.2971C50.1193 14.9631 50.3826 15.8596 50.3826 16.9867C50.3826 17.8917 50.1363 18.7456 49.6437 19.5482C49.1681 20.3507 48.4632 20.9997 47.529 21.4949C46.6118 21.973 45.5247 22.2121 44.2677 22.2121Z" fill="white"/>
<path d="M66.5237 7.91906V22.0328H63.6191V20.3678C63.1605 20.9484 62.5575 21.4095 61.8101 21.751C61.0798 22.0755 60.2984 22.2377 59.4661 22.2377C58.362 22.2377 57.3684 22.0072 56.4851 21.5461C55.6188 21.085 54.9309 20.402 54.4214 19.4969C53.9288 18.5919 53.6825 17.499 53.6825 16.2182V7.91906H56.5616V15.7828C56.5616 17.0464 56.8758 18.0198 57.5043 18.7029C58.1327 19.3689 58.9905 19.7018 60.0776 19.7018C61.1647 19.7018 62.0225 19.3689 62.6509 18.7029C63.2964 18.0198 63.6191 17.0464 63.6191 15.7828V7.91906H66.5237Z" fill="white"/>
<path d="M76.0123 7.68853C77.0994 7.68853 78.0591 7.91052 78.8914 8.35451C79.7406 8.78142 80.4031 9.31933 80.8787 9.96824V7.91906H83.8087V22.2633C83.8087 23.5611 83.537 24.7138 82.9934 25.7213C82.4499 26.7459 81.66 27.5485 80.6239 28.1291C79.6048 28.7097 78.3818 29 76.955 29C75.0526 29 73.4729 28.5475 72.216 27.6424C70.959 26.7544 70.2456 25.542 70.0758 24.0051H72.9548C73.1757 24.7394 73.6428 25.3286 74.3562 25.7725C75.0866 26.2336 75.9528 26.4641 76.955 26.4641C78.127 26.4641 79.0697 26.1055 79.7831 25.3883C80.5135 24.6711 80.8787 23.6294 80.8787 22.2633V19.9068C80.3861 20.5727 79.7152 21.1363 78.8659 21.5973C78.0336 22.0413 77.0824 22.2633 76.0123 22.2633C74.7893 22.2633 73.6682 21.9559 72.6491 21.3412C71.6469 20.7094 70.8486 19.8385 70.2541 18.7285C69.6766 17.6014 69.3878 16.3292 69.3878 14.9119C69.3878 13.4945 69.6766 12.2394 70.2541 11.1465C70.8486 10.0536 71.6469 9.20833 72.6491 8.61066C73.6682 7.9959 74.7893 7.68853 76.0123 7.68853ZM80.8787 14.9631C80.8787 13.9898 80.6749 13.1445 80.2672 12.4273C79.8765 11.71 79.3585 11.1636 78.713 10.7879C78.0675 10.4122 77.3711 10.2244 76.6238 10.2244C75.8764 10.2244 75.18 10.4122 74.5345 10.7879C73.8891 11.1465 73.3625 11.6844 72.9548 12.4016C72.5642 13.1018 72.3688 13.9385 72.3688 14.9119C72.3688 15.8852 72.5642 16.7391 72.9548 17.4734C73.3625 18.2076 73.8891 18.7712 74.5345 19.1639C75.197 19.5396 75.8934 19.7275 76.6238 19.7275C77.3711 19.7275 78.0675 19.5396 78.713 19.1639C79.3585 18.7882 79.8765 18.2418 80.2672 17.5246C80.6749 16.7903 80.8787 15.9365 80.8787 14.9631Z" fill="white"/>
<path d="M86.6556 14.9119C86.6556 13.4945 86.9443 12.2394 87.5218 11.1465C88.1163 10.0536 88.9147 9.20833 89.9168 8.61066C90.936 7.9959 92.057 7.68853 93.28 7.68853C94.3841 7.68853 95.3438 7.91052 96.1591 8.35451C96.9914 8.78142 97.6538 9.31933 98.1464 9.96824V7.91906H101.076V22.0328H98.1464V19.9324C97.6538 20.5984 96.9829 21.1533 96.1336 21.5973C95.2843 22.0413 94.3161 22.2633 93.229 22.2633C92.0231 22.2633 90.919 21.9559 89.9168 21.3412C88.9147 20.7094 88.1163 19.8385 87.5218 18.7285C86.9443 17.6014 86.6556 16.3292 86.6556 14.9119ZM98.1464 14.9631C98.1464 13.9898 97.9426 13.1445 97.5349 12.4273C97.1442 11.71 96.6262 11.1636 95.9807 10.7879C95.3353 10.4122 94.6389 10.2244 93.8915 10.2244C93.1441 10.2244 92.4477 10.4122 91.8022 10.7879C91.1568 11.1465 90.6302 11.6844 90.2226 12.4016C89.8319 13.1018 89.6366 13.9385 89.6366 14.9119C89.6366 15.8852 89.8319 16.7391 90.2226 17.4734C90.6302 18.2076 91.1568 18.7712 91.8022 19.1639C92.4647 19.5396 93.1611 19.7275 93.8915 19.7275C94.6389 19.7275 95.3353 19.5396 95.9807 19.1639C96.6262 18.7882 97.1442 18.2418 97.5349 17.5246C97.9426 16.7903 98.1464 15.9365 98.1464 14.9631Z" fill="white"/>
<path d="M107.796 9.96824C108.221 9.25102 108.781 8.69604 109.478 8.30328C110.191 7.89344 111.032 7.68853 112 7.68853V10.7111H111.261C110.123 10.7111 109.257 11.0014 108.662 11.582C108.085 12.1626 107.796 13.1701 107.796 14.6045V22.0328H104.891V7.91906H107.796V9.96824Z" fill="white"/>
</svg>
