 <svg width="74" height="25" viewBox="0 0 74 25" fill="none" xmlns="http://www.w3.org/2000/svg">
                    <path d="M6.26774 18.2121C5.07873 18.2121 4.00863 18.0072 3.05743 17.5973C2.10623 17.1704 1.35886 16.5727 0.815315 15.8043C0.271772 15.0359 0 14.1393 0 13.1148H3.10839C3.17633 13.8832 3.47358 14.515 4.00014 15.0102C4.54368 15.5055 5.29955 15.7531 6.26774 15.7531C7.26989 15.7531 8.05124 15.514 8.61177 15.0359C9.1723 14.5406 9.45256 13.9088 9.45256 13.1404C9.45256 12.5427 9.27421 12.056 8.91751 11.6803C8.5778 11.3046 8.14466 11.0143 7.6181 10.8094C7.10853 10.6045 6.39513 10.3825 5.4779 10.1434C4.32287 9.83606 3.38016 9.52869 2.64977 9.22131C1.93637 8.89686 1.32489 8.40164 0.815315 7.73566C0.305743 7.06967 0.0509572 6.18169 0.0509572 5.07172C0.0509572 4.04713 0.305743 3.15061 0.815315 2.38217C1.32489 1.61373 2.03829 1.02459 2.95552 0.614755C3.87275 0.204918 4.93436 0 6.14034 0C7.8559 0 9.25722 0.435451 10.3443 1.30635C11.4484 2.16018 12.0599 3.33846 12.1788 4.84119H8.96847C8.91751 4.19228 8.61177 3.63729 8.05124 3.17623C7.49071 2.71516 6.75183 2.48463 5.8346 2.48463C5.0023 2.48463 4.32287 2.69809 3.79631 3.125C3.26975 3.55191 3.00647 4.16667 3.00647 4.96926C3.00647 5.51571 3.16784 5.96824 3.49057 6.32684C3.83028 6.66837 4.25493 6.9416 4.7645 7.14652C5.27407 7.35143 5.97048 7.57343 6.85374 7.8125C8.02576 8.13695 8.97696 8.46141 9.70735 8.78586C10.4547 9.11031 11.0832 9.61407 11.5928 10.2971C12.1193 10.9631 12.3826 11.8596 12.3826 12.9867C12.3826 13.8917 12.1363 14.7456 11.6437 15.5482C11.1681 16.3507 10.4632 16.9997 9.529 17.4949C8.61177 17.973 7.52468 18.2121 6.26774 18.2121Z" fill="#152836"/>
                    <path d="M28.5237 3.91906V18.0328H25.6191V16.3678C25.1605 16.9484 24.5575 17.4095 23.8101 17.751C23.0798 18.0755 22.2984 18.2377 21.4661 18.2377C20.362 18.2377 19.3684 18.0072 18.4851 17.5461C17.6188 17.085 16.9309 16.402 16.4214 15.4969C15.9288 14.5919 15.6825 13.499 15.6825 12.2182V3.91906H18.5616V11.7828C18.5616 13.0464 18.8758 14.0198 19.5043 14.7029C20.1327 15.3689 20.9905 15.7018 22.0776 15.7018C23.1647 15.7018 24.0225 15.3689 24.6509 14.7029C25.2964 14.0198 25.6191 13.0464 25.6191 11.7828V3.91906H28.5237Z" fill="#152836"/>
                    <path d="M38.0123 3.68853C39.0994 3.68853 40.0591 3.91052 40.8914 4.35451C41.7406 4.78142 42.4031 5.31933 42.8787 5.96824V3.91906H45.8087V18.2633C45.8087 19.5611 45.537 20.7138 44.9934 21.7213C44.4499 22.7459 43.66 23.5485 42.6239 24.1291C41.6048 24.7097 40.3818 25 38.955 25C37.0526 25 35.4729 24.5475 34.216 23.6424C32.959 22.7544 32.2456 21.542 32.0758 20.0051H34.9548C35.1757 20.7394 35.6428 21.3286 36.3562 21.7725C37.0866 22.2336 37.9528 22.4641 38.955 22.4641C40.127 22.4641 41.0697 22.1055 41.7831 21.3883C42.5135 20.6711 42.8787 19.6294 42.8787 18.2633V15.9068C42.3861 16.5727 41.7152 17.1363 40.8659 17.5973C40.0336 18.0413 39.0824 18.2633 38.0123 18.2633C36.7893 18.2633 35.6682 17.9559 34.6491 17.3412C33.6469 16.7094 32.8486 15.8385 32.2541 14.7285C31.6766 13.6014 31.3878 12.3292 31.3878 10.9119C31.3878 9.49453 31.6766 8.23941 32.2541 7.14652C32.8486 6.05362 33.6469 5.20833 34.6491 4.61066C35.6682 3.9959 36.7893 3.68853 38.0123 3.68853ZM42.8787 10.9631C42.8787 9.98975 42.6749 9.14447 42.2672 8.42725C41.8765 7.71004 41.3585 7.16359 40.713 6.78791C40.0675 6.41223 39.3711 6.22439 38.6238 6.22439C37.8764 6.22439 37.18 6.41223 36.5345 6.78791C35.8891 7.14652 35.3625 7.68443 34.9548 8.40164C34.5642 9.10178 34.3688 9.93852 34.3688 10.9119C34.3688 11.8852 34.5642 12.7391 34.9548 13.4734C35.3625 14.2076 35.8891 14.7712 36.5345 15.1639C37.197 15.5396 37.8934 15.7275 38.6238 15.7275C39.3711 15.7275 40.0675 15.5396 40.713 15.1639C41.3585 14.7882 41.8765 14.2418 42.2672 13.5246C42.6749 12.7903 42.8787 11.9365 42.8787 10.9631Z" fill="#152836"/>
                    <path d="M48.6556 10.9119C48.6556 9.49453 48.9443 8.23941 49.5218 7.14652C50.1163 6.05362 50.9147 5.20833 51.9168 4.61066C52.936 3.9959 54.057 3.68853 55.28 3.68853C56.3841 3.68853 57.3438 3.91052 58.1591 4.35451C58.9914 4.78142 59.6538 5.31933 60.1464 5.96824V3.91906H63.0764V18.0328H60.1464V15.9324C59.6538 16.5984 58.9829 17.1533 58.1336 17.5973C57.2843 18.0413 56.3161 18.2633 55.229 18.2633C54.0231 18.2633 52.919 17.9559 51.9168 17.3412C50.9147 16.7094 50.1163 15.8385 49.5218 14.7285C48.9443 13.6014 48.6556 12.3292 48.6556 10.9119ZM60.1464 10.9631C60.1464 9.98975 59.9426 9.14447 59.5349 8.42725C59.1442 7.71004 58.6262 7.16359 57.9807 6.78791C57.3353 6.41223 56.6389 6.22439 55.8915 6.22439C55.1441 6.22439 54.4477 6.41223 53.8022 6.78791C53.1568 7.14652 52.6302 7.68443 52.2226 8.40164C51.8319 9.10178 51.6366 9.93852 51.6366 10.9119C51.6366 11.8852 51.8319 12.7391 52.2226 13.4734C52.6302 14.2076 53.1568 14.7712 53.8022 15.1639C54.4647 15.5396 55.1611 15.7275 55.8915 15.7275C56.6389 15.7275 57.3353 15.5396 57.9807 15.1639C58.6262 14.7882 59.1442 14.2418 59.5349 13.5246C59.9426 12.7903 60.1464 11.9365 60.1464 10.9631Z" fill="#152836"/>
                    <path d="M69.796 5.96824C70.2207 5.25102 70.7812 4.69604 71.4776 4.30328C72.191 3.89344 73.0318 3.68853 74 3.68853V6.71106H73.2611C72.1231 6.71106 71.2568 7.00137 70.6623 7.58197C70.0848 8.16257 69.796 9.17008 69.796 10.6045V18.0328H66.8915V3.91906H69.796V5.96824Z" fill="#152836"/>
                    </svg>