<svg width="149" height="254" viewBox="0 0 149 254" fill="none" xmlns="http://www.w3.org/2000/svg">
<path d="M120.683 253.774C120.683 253.774 121.277 249.147 122.653 246.396C124.03 243.645 132.784 245.395 132.784 245.395C132.784 245.395 134.535 246.896 134.911 253.901L120.683 253.774Z" fill="#1D2D4F"/>
<path d="M90.8573 253.713C92.9141 252.457 91.7445 243.088 91.7445 243.088C91.7445 243.088 82.1594 235.419 80.842 241.292C79.5246 247.165 71.7355 249.8 67.3019 250.518C64.2422 251.016 63.2931 252.71 63 253.713H90.8573Z" fill="#1D2D4F"/>
<path d="M110.71 185.577C110.321 187.728 110.073 189.489 110.006 190.756C109.116 208.138 95.3742 247.885 92.9168 248.813C89.115 250.249 83.1274 247.197 79.9924 246.199C78.6938 245.785 77.8173 244.476 78.1076 243.147C84.9126 211.862 87.4131 166.812 88.3219 140.142C88.7816 126.707 91.0858 117.427 91.0858 117.427C91.0858 117.427 124.597 108.486 124.796 119.797C124.976 129.805 113.7 169.063 110.71 185.577Z" fill="#2E3F62"/>
<path d="M110.71 185.577L88.3246 140.142C88.7843 126.707 91.0885 117.427 91.0885 117.427C91.0885 117.427 124.6 108.486 124.799 119.797C124.976 129.805 113.7 169.063 110.71 185.577Z" fill="#1D2D4F"/>
<path d="M103.255 119.837L120.97 248.248C120.97 248.248 128.749 250.125 134.801 248.625C134.801 248.625 139.987 180.33 139.554 163.817C139.121 147.306 143.275 119.635 138.605 116.586C133.935 113.534 103.255 119.837 103.255 119.837Z" fill="#2E3F62"/>
<path d="M142.06 117.696C142.146 118.858 141.404 119.912 140.286 120.238C137.815 120.956 134.965 121.453 129.472 122.593C124.312 123.666 117.367 124.615 108.836 124.667C95.2667 124.753 90.1286 120.076 90.1286 120.076C89.5452 120.087 90.4378 117.247 91.2417 103.74C91.5133 99.166 91.7768 93.3657 91.9677 86.0379C92.1397 79.4443 92.2554 71.6083 92.2661 62.3149C92.2796 51.1337 109.584 39.1055 109.904 39.1055L109.906 39.1109C109.906 40.7216 112.445 43.6903 116.351 43.9485C120.989 44.2524 126.678 41.9424 126.678 39.2722C126.678 39.2453 135.062 52.6853 138.038 67.0073C138.417 68.8225 138.71 70.7371 138.941 72.7539C139.646 78.8231 138.966 74.491 142.06 117.696Z" fill="#66B9AA"/>
<path d="M109.901 39.1027C109.901 39.1027 93.812 38.9656 89.9377 44.3975C86.066 49.8295 77.5752 79.049 82.0061 88.7727C86.437 98.4964 94.7262 84.7498 99.3292 78.7962C103.929 72.8399 109.901 39.1027 109.901 39.1027Z" fill="#66B9AA"/>
<path d="M109.737 36.6476L109.745 38.3121C109.745 38.3121 109.293 43.5155 115.698 44.2738C122.102 45.0348 126.872 43.3165 126.697 39.3017C126.119 36.1931 125.571 32.9851 125.528 30.4143C125.511 29.4597 125.576 28.4432 125.756 27.3004L113.345 27.053L109.689 27.6499L109.737 36.6476Z" fill="#FFB27D"/>
<path d="M109.689 27.6499L109.737 36.6476C111.054 37.2607 112.544 37.6345 114.211 37.6345C119.916 37.6345 123.602 33.4503 125.53 30.4143C125.514 29.4597 125.579 28.4432 125.759 27.3004L113.348 27.053L109.689 27.6499Z" fill="#E2915A"/>
<path d="M126.708 25.3024C125.267 33.055 115.268 32.7995 110.947 32.3128C109.732 32.1783 108.965 32.0224 108.965 32.0224C107.594 31.6566 106.828 29.4946 106.473 26.6657C105.769 21.0644 106.659 12.8439 107.605 10.7437C109.03 7.57866 111.711 4.15816 121.78 6.62673C131.851 9.0953 128.555 15.3716 126.708 25.3024Z" fill="#FFB27D"/>
<path d="M93.4464 60.8789C93.4464 60.8789 87.2248 74.6228 87.405 78.7452C87.405 78.7452 90.4862 78.6403 93.4464 79.5223C98.3129 80.9717 93.4464 60.8789 93.4464 60.8789Z" fill="#348A7A"/>
<path d="M104.513 3.36227C104.513 3.36227 108.947 3.02077 114.173 0.748498C118.416 -1.09621 123.772 0.936727 125.509 1.85101C125.463 1.57135 125.35 1.1895 125.084 0.804959C125.084 0.804959 125.864 1.35891 125.979 2.13067C126.06 2.18983 126.095 2.23018 126.076 2.24362C126.076 2.24362 126.961 2.08227 127.528 2.33774C127.528 2.33774 127.13 2.28126 126.987 2.53673C126.971 2.56362 126.95 2.58782 126.923 2.60664C133.542 5.80665 134.153 16.2698 132.023 18.69C129.461 21.6023 125.665 28.083 125.665 28.083C125.665 28.083 125.267 26.612 125.732 24.0493C126.197 21.4867 123.984 21.4867 121.188 20.3196C118.392 19.1552 120.723 15.8934 118.276 13.9115C115.83 11.9297 106.86 13.0967 106.976 11.5801C103.65 10.3727 104.513 3.70379 104.513 3.36227Z" fill="#1D2D4F"/>
<path d="M128.735 86.6268C126.108 97.1787 97.6972 102.629 91.239 103.737C91.5105 99.1633 91.774 93.3629 91.9649 86.0352L128.735 86.6268Z" fill="#348A7A"/>
<path d="M122.5 90.0581C122.772 90.0581 128.816 89.1546 129.899 88.6141C130.983 88.0736 135.933 81.0336 132.69 79.2292C129.448 77.4249 120.742 84.6423 120.742 84.6423L122.5 90.0581Z" fill="#FFB27D"/>
<path d="M85.7327 92.1474C85.7327 92.1474 109.113 93.4166 124.802 90.0553C124.802 90.0553 125.197 85.5215 120.266 83.5074C120.266 83.5074 95.8125 78.3229 89.9378 79.7669C84.0631 81.2136 85.7327 92.1474 85.7327 92.1474Z" fill="#66B9AA"/>
<path d="M139.423 73.7973C134.57 79.6487 128.227 84.4245 121.236 85.5459L121.234 85.5432C121.177 85.4545 119.118 82.3297 119.502 77.7341C119.68 75.607 120.384 73.1654 122.048 70.565C122.562 69.7664 123.016 68.8306 123.422 67.7926C127.24 58.0474 126.673 39.2695 126.673 39.2695C126.673 39.2695 142.888 40.969 147.94 48.1865C151.038 52.6074 147.091 64.5469 139.423 73.7973Z" fill="#66B9AA"/>
<path d="M110.944 32.3129C109.729 32.1784 108.963 32.0225 108.963 32.0225C107.591 31.6568 106.825 29.4947 106.47 26.6658C109.041 27.3005 110.221 29.2877 110.71 30.132C110.933 30.5139 110.979 31.3663 110.944 32.3129Z" fill="#E2915A"/>
<path d="M104.414 36.6961C104.414 36.6961 98.8131 27.4537 103.169 27.0504C107.524 26.647 109.275 29.5969 109.901 30.6779C110.53 31.7616 109.737 36.645 109.737 36.645L104.414 36.6961Z" fill="#FFB27D"/>
<path d="M125.756 77.4221C125.584 78.5946 125.235 79.6702 124.802 80.6302C123.433 83.6662 121.237 85.5432 121.237 85.5432L121.234 85.5405C106.691 78.9737 103.747 56.4285 103.255 44.0399C103.056 39.0597 103.255 35.7226 103.255 35.7226C109.815 33.5498 111.66 37.3253 111.66 37.3253C111.66 37.3253 119.406 55.7509 123.425 67.7925C124.963 72.4016 125.952 76.0749 125.756 77.4221Z" fill="#66B9AA"/>
<path d="M139.423 73.7972C134.57 79.6487 128.227 84.4245 121.236 85.5458L121.234 85.5432C106.691 78.9764 103.747 56.4312 103.255 44.0426C103.255 44.0426 110.138 69.008 119.505 77.7341C121.199 79.3125 122.973 80.3613 124.802 80.6329C124.802 80.6329 136.613 77.2931 139.092 74.1495C139.269 73.9236 139.377 73.8134 139.423 73.7972Z" fill="#348A7A"/>
<path d="M35.3092 87.9204C43.0192 87.9204 49.2694 81.6702 49.2694 73.9602C49.2694 66.2502 43.0192 60 35.3092 60C27.5992 60 21.349 66.2502 21.349 73.9602C21.349 81.6702 27.5992 87.9204 35.3092 87.9204Z" fill="#307669"/>
<path d="M49.5836 144.564C49.1979 144.305 48.7643 144.125 48.3082 144.035C47.8522 143.946 47.3828 143.948 46.9276 144.042C46.4725 144.137 46.0408 144.321 45.6578 144.584C45.2749 144.848 44.9484 145.185 44.6975 145.576C41.3236 150.573 37.1905 155.012 32.4474 158.734C31.2957 159.606 27.0029 162.922 25.1881 162.224C23.9317 161.84 24.6646 159.362 24.9089 158.315L26.7586 152.835C27.5264 150.602 40.8933 110.955 42.3592 106.418C44.523 99.7866 43.5807 93.2602 33.7038 94.8308C31.0165 95.11 3.75917 98.6349 3.27056 98.6698C2.81224 98.6996 2.36428 98.8194 1.95225 99.0223C1.54022 99.2252 1.17218 99.5073 0.869168 99.8524C0.566152 100.198 0.334084 100.599 0.186215 101.034C0.038347 101.469 -0.0224255 101.928 0.00736527 102.387C0.0371561 102.845 0.156929 103.293 0.359843 103.705C0.562758 104.117 0.84484 104.485 1.18999 104.788C1.53513 105.091 1.93658 105.323 2.37142 105.471C2.80625 105.619 3.26595 105.68 3.72427 105.65C3.72427 105.65 14.1944 104.289 15.3461 104.184C15.9361 104.127 16.5301 104.241 17.0565 104.513C17.5828 104.786 18.0191 105.205 18.3127 105.72C18.9451 107.675 18.8584 109.791 18.0684 111.688C17.161 115.178 2.81686 155.593 2.36315 157.931C1.87652 159.888 2.01163 161.947 2.7497 163.824C3.48776 165.7 4.7921 167.3 6.48141 168.401C9.65216 170.514 13.4275 171.532 17.2308 171.298C20.9287 171.253 24.5859 170.519 28.015 169.134C36.7053 165.644 45.7794 156.36 50.5608 149.066C50.9725 148.325 51.1004 147.459 50.9206 146.631C50.7407 145.802 50.2655 145.068 49.5836 144.564Z" fill="#307669"/>
</svg>
