<svg width="61" height="61" viewBox="0 0 61 61" fill="none" xmlns="http://www.w3.org/2000/svg">
<circle cx="30.5" cy="30.5" r="30.5" fill="url(#paint0_linear)"/>
<path d="M31.2218 13.3043C31.3304 13.2219 31.427 13.1247 31.5087 13.0155H36.5093L36.5776 13.0135C36.932 12.9955 37.287 12.9955 37.6414 13.0135H37.7155C38.8267 13.011 39.9244 13.2571 40.9282 13.7337C42.7623 14.4529 44.3487 15.6882 45.4955 17.29C46.3637 18.5028 46.9544 19.8918 47.2256 21.3585C47.4968 22.8251 47.4419 24.3335 47.0648 25.7766L40.6608 19.4585C40.3867 19.1881 40.0172 19.0367 39.6322 19.0369H30.3708C30.0518 19.0384 29.7419 19.1424 29.4866 19.3335L25.8093 22.1208C25.6118 22.2715 25.3865 22.3818 25.1463 22.4453C24.9061 22.5088 24.6557 22.5243 24.4095 22.491C24.1633 22.4576 23.9261 22.376 23.7115 22.2509C23.4968 22.1257 23.309 21.9595 23.1587 21.7616C23.0091 21.5671 22.8996 21.3449 22.8364 21.1078C22.7731 20.8707 22.7575 20.6235 22.7903 20.3803C22.8232 20.1371 22.9039 19.9029 23.0277 19.691C23.1516 19.4792 23.3162 19.294 23.512 19.1462L31.2218 13.3043Z" fill="white"/>
<path d="M21.5856 34.919L21.5602 34.9444L19.6591 36.8337L19.6337 36.8572C19.3008 37.1737 18.8577 37.3483 18.3983 37.3439C17.939 37.3396 17.4993 37.1566 17.1725 36.8337C17.0092 36.6719 16.8796 36.4793 16.7911 36.267C16.7026 36.0548 16.6571 35.8272 16.6571 35.5972C16.6571 35.3673 16.7026 35.1397 16.7911 34.9275C16.8796 34.7152 17.0092 34.5226 17.1725 34.3608L19.0735 32.4714C19.4047 32.1435 19.8518 31.9595 20.3178 31.9595C20.7838 31.9595 21.231 32.1435 21.5621 32.4714C21.8873 32.7942 22.0722 33.2322 22.0766 33.6904C22.081 34.1486 21.9045 34.59 21.5856 34.919Z" fill="white"/>
<path d="M21.0195 38.2332C20.7008 38.5624 20.5247 39.004 20.5295 39.4622C20.5342 39.9204 20.7194 40.3582 21.0449 40.6808C21.7319 41.3639 22.8445 41.3639 23.5335 40.6808L25.4345 38.7934C25.6192 38.6106 25.7606 38.3889 25.8484 38.1443C25.9362 37.8998 25.9682 37.6388 25.942 37.3803C25.9158 37.1219 25.8321 36.8725 25.697 36.6506C25.5619 36.4287 25.3789 36.2398 25.1613 36.0979C24.8278 35.8784 24.4299 35.7783 24.0323 35.8137C23.6347 35.8492 23.2607 36.0181 22.9713 36.2931L22.946 36.3204L21.0449 38.2078L21.0195 38.2332Z" fill="white"/>
<path d="M16.905 29.3992C17.0683 29.561 17.1979 29.7536 17.2864 29.9659C17.3748 30.1781 17.4204 30.4057 17.4204 30.6357C17.4204 30.8656 17.3748 31.0932 17.2864 31.3055C17.1979 31.5177 17.0683 31.7103 16.905 31.8722L15.0059 33.7615C14.6747 34.09 14.2271 34.2743 13.7606 34.2743C13.2941 34.2743 12.8466 34.09 12.5154 33.7615C12.3521 33.5997 12.2224 33.4071 12.134 33.1948C12.0455 32.9826 12 32.755 12 32.525C12 32.2951 12.0455 32.0675 12.134 31.8552C12.2224 31.643 12.3521 31.4504 12.5154 31.2886L14.4184 29.3992C14.7495 29.0713 15.1967 28.8873 15.6627 28.8873C16.1287 28.8873 16.5759 29.0713 16.907 29.3992H16.905Z" fill="white"/>
<path d="M29.307 40.1675C29.4703 40.3293 29.5999 40.522 29.6884 40.7342C29.7768 40.9464 29.8224 41.1741 29.8224 41.404C29.8224 41.6339 29.7768 41.8615 29.6884 42.0738C29.5999 42.286 29.4703 42.4786 29.307 42.6405L27.4059 44.5298C27.0758 44.8596 26.6282 45.0449 26.1616 45.0449C25.695 45.0449 25.2474 44.8596 24.9173 44.5298C24.6581 44.2728 24.4862 43.9408 24.4259 43.5807C24.3657 43.2207 24.4201 42.8508 24.5816 42.5234L24.5836 42.5194C24.6687 42.348 24.7814 42.1917 24.9173 42.0569L26.8184 40.1675C27.1495 39.8396 27.5967 39.6556 28.0627 39.6556C28.5287 39.6556 28.9759 39.8396 29.307 40.1675Z" fill="white"/>
<path d="M16.6005 16.5619C17.8965 15.2744 19.4681 14.298 21.1965 13.7067C22.925 13.1153 24.7652 12.9243 26.5783 13.1481L21.7436 16.8137C21.2402 17.1945 20.8172 17.6712 20.4988 18.2162C20.1803 18.7612 19.9729 19.3639 19.8884 19.9894C19.8038 20.6149 19.8439 21.251 20.0062 21.861C20.1685 22.471 20.4498 23.0428 20.8341 23.5436C21.6098 24.5548 22.754 25.2182 24.017 25.3889C25.28 25.5597 26.5593 25.224 27.5757 24.4551L30.8626 21.9666H39.031L45.8761 28.7199C45.8982 28.7471 45.9217 28.7732 45.9464 28.798L48.191 31.0426C48.6959 31.5546 48.9853 32.2407 48.9994 32.9596C49.0136 33.6785 48.7515 34.3755 48.2671 34.9069C47.7827 35.4383 47.1129 35.7638 46.3958 35.8161C45.6786 35.8685 44.9687 35.6438 44.4123 35.1883L44.2249 35.0009C44.1886 34.9641 44.1494 34.9302 44.1078 34.8994L41.9744 32.768C41.8844 32.6748 41.7767 32.6005 41.6576 32.5493C41.5386 32.4982 41.4105 32.4713 41.2809 32.4701C41.1513 32.469 41.0228 32.4937 40.9029 32.5428C40.783 32.5918 40.674 32.6643 40.5824 32.7559C40.4907 32.8476 40.4183 32.9565 40.3692 33.0765C40.3201 33.1964 40.2954 33.3249 40.2966 33.4545C40.2977 33.5841 40.3246 33.7121 40.3758 33.8312C40.4269 33.9503 40.5013 34.0579 40.5945 34.148L42.8391 36.3926C42.9211 36.4726 43.003 36.5507 43.0889 36.6249L43.1748 36.7107C43.5202 37.0891 43.7064 37.5861 43.6947 38.0983C43.683 38.6104 43.4744 39.0984 43.1121 39.4607C42.7499 39.8229 42.2619 40.0316 41.7497 40.0433C41.2375 40.0549 40.7406 39.8687 40.3622 39.5233L40.0304 39.1935C39.8927 39.0562 39.7172 38.9632 39.5264 38.9263C39.3355 38.8894 39.138 38.9104 38.9591 38.9865C38.7802 39.0626 38.6281 39.1904 38.5224 39.3535C38.4166 39.5166 38.362 39.7076 38.3655 39.902C38.3625 40.034 38.3864 40.1652 38.4357 40.2877C38.4851 40.4101 38.5588 40.5213 38.6524 40.6144L39.0876 41.0497C39.267 41.2186 39.4107 41.4217 39.51 41.6472C39.6094 41.8726 39.6626 42.1157 39.6663 42.362C39.67 42.6084 39.6242 42.853 39.5316 43.0813C39.4391 43.3096 39.3016 43.517 39.1274 43.6912C38.9532 43.8654 38.7458 44.0029 38.5174 44.0954C38.2891 44.188 38.0445 44.2338 37.7982 44.2301C37.5519 44.2264 37.3088 44.1733 37.0833 44.0739C36.8579 43.9745 36.6547 43.8308 36.4858 43.6515H36.4819L36.4605 43.6261L36.0506 43.2162C35.9606 43.123 35.8529 43.0487 35.7338 42.9975C35.6147 42.9464 35.4867 42.9194 35.3571 42.9183C35.2275 42.9172 35.099 42.9419 34.9791 42.9909C34.8591 43.04 34.7502 43.1125 34.6585 43.2041C34.5669 43.2957 34.4944 43.4047 34.4454 43.5246C34.3963 43.6446 34.3716 43.7731 34.3727 43.9027C34.3739 44.0323 34.4008 44.1603 34.4519 44.2794C34.5031 44.3984 34.5774 44.5061 34.6706 44.5962L35.0961 45.0236C35.2713 45.1966 35.4107 45.4025 35.5064 45.6293C35.602 45.8562 35.6521 46.0997 35.6536 46.346C35.6551 46.5922 35.6082 46.8363 35.5154 47.0644C35.4226 47.2924 35.2857 47.5 35.1127 47.6752C34.9397 47.8504 34.7339 47.9898 34.507 48.0854C34.2801 48.1811 34.0366 48.2311 33.7904 48.2326C33.5442 48.2342 33.3 48.1872 33.072 48.0944C32.8439 48.0016 32.6364 47.8648 32.4612 47.6918L29.6681 45.0373L30.6908 44.0184C31.0357 43.6765 31.3095 43.2697 31.4963 42.8215C31.6831 42.3733 31.7793 41.8925 31.7793 41.4069C31.7793 40.9212 31.6831 40.4404 31.4963 39.9922C31.3095 39.544 31.0357 39.1372 30.6908 38.7953C30.3261 38.4324 29.8901 38.1492 29.4104 37.9634C28.9306 37.7776 28.4176 37.6933 27.9036 37.7159C27.9264 37.2038 27.8416 36.6925 27.6546 36.2152C27.4677 35.7378 27.1829 35.3049 26.8184 34.9443C26.4535 34.5818 26.0175 34.2989 25.5377 34.1135C25.058 33.928 24.545 33.8441 24.0312 33.8669C24.0535 33.3551 23.9685 32.8442 23.7816 32.3672C23.5947 31.8902 23.3101 31.4576 22.946 31.0972C22.4823 30.6366 21.9058 30.3059 21.2742 30.138C20.6425 29.9702 19.9779 29.9712 19.3468 30.1409C19.2379 29.3384 18.8666 28.5945 18.2908 28.0251C17.6487 27.3886 16.7976 27.0066 15.8952 26.9499C14.9929 26.8932 14.1006 27.1656 13.3839 27.7167C12.9232 25.7377 12.9769 23.6737 13.54 21.7214C14.103 19.7691 15.1567 17.9935 16.6005 16.5639V16.5619Z" fill="white"/>
<defs>
<linearGradient id="paint0_linear" x1="30.5" y1="0" x2="30.5" y2="61" gradientUnits="userSpaceOnUse">
<stop stop-color="#97E2D4"/>
<stop offset="1" stop-color="#3CA894"/>
</linearGradient>
</defs>
</svg>
