<svg width="29" height="29" viewBox="0 0 29 29" fill="none" xmlns="http://www.w3.org/2000/svg">
<path fill-rule="evenodd" clip-rule="evenodd" d="M2.7558 5.97229C1.02237 8.35787 0 11.2935 0 14.468C0 21.5161 5.03978 27.3871 11.7122 28.6739V22.391C11.7122 20.6787 13.1003 19.2907 14.8125 19.2907C16.5247 19.2907 17.9128 20.6787 17.9128 22.391V28.5234C24.2401 26.978 28.936 21.2714 28.936 14.468C28.936 10.8933 27.6396 7.62138 25.4912 5.09679V13.4346C25.4912 15.1468 24.1032 16.5349 22.391 16.5349C20.6787 16.5349 19.2907 15.1468 19.2907 13.4346V0.823257C17.7822 0.290104 16.159 0 14.468 0C12.5164 0 10.6551 0.386398 8.95637 1.08686V13.4346C8.95637 15.1468 7.56833 16.5349 5.85609 16.5349C4.14385 16.5349 2.7558 15.1468 2.7558 13.4346V5.97229Z" fill="url(#paint0_linear)"/>
<defs>
<linearGradient id="paint0_linear" x1="14.468" y1="0" x2="14.468" y2="28.936" gradientUnits="userSpaceOnUse">
<stop stop-color="#66B9AA"/>
<stop offset="1" stop-color="#288876"/>
</linearGradient>
</defs>
</svg>
