<svg width="169" height="27" viewBox="0 0 169 27" fill="none" xmlns="http://www.w3.org/2000/svg">
<path d="M45.746 14.114H41.912V18.002H40.382V14.114H36.566V12.728H40.382V8.822H41.912V12.728H45.746V14.114ZM55.6571 10.082C55.3931 8.75 54.5711 8.084 53.1911 8.084C52.1231 8.084 51.3251 8.498 50.7971 9.326C50.2691 10.142 50.0111 11.492 50.0231 13.376C50.2991 12.752 50.7551 12.266 51.3911 11.918C52.0391 11.558 52.7591 11.378 53.5511 11.378C54.7871 11.378 55.7711 11.762 56.5031 12.53C57.2471 13.298 57.6191 14.36 57.6191 15.716C57.6191 16.532 57.4571 17.264 57.1331 17.912C56.8211 18.56 56.3411 19.076 55.6931 19.46C55.0571 19.844 54.2831 20.036 53.3711 20.036C52.1351 20.036 51.1691 19.76 50.4731 19.208C49.7771 18.656 49.2911 17.894 49.0151 16.922C48.7391 15.95 48.6011 14.75 48.6011 13.322C48.6011 8.918 50.1371 6.716 53.2091 6.716C54.3851 6.716 55.3091 7.034 55.9811 7.67C56.6531 8.306 57.0491 9.11 57.1691 10.082H55.6571ZM53.2091 12.764C52.6931 12.764 52.2071 12.872 51.7511 13.088C51.2951 13.292 50.9231 13.61 50.6351 14.042C50.3591 14.462 50.2211 14.978 50.2211 15.59C50.2211 16.502 50.4851 17.246 51.0131 17.822C51.5411 18.386 52.2971 18.668 53.2811 18.668C54.1211 18.668 54.7871 18.41 55.2791 17.894C55.7831 17.366 56.0351 16.658 56.0351 15.77C56.0351 14.834 55.7951 14.102 55.3151 13.574C54.8351 13.034 54.1331 12.764 53.2091 12.764ZM59.6309 18.686C61.1549 17.462 62.3489 16.46 63.2129 15.68C64.0769 14.888 64.8029 14.066 65.3909 13.214C65.9909 12.35 66.2909 11.504 66.2909 10.676C66.2909 9.896 66.0989 9.284 65.7149 8.84C65.3429 8.384 64.7369 8.156 63.8969 8.156C63.0809 8.156 62.4449 8.414 61.9889 8.93C61.5449 9.434 61.3049 10.112 61.2689 10.964H59.6849C59.7329 9.62 60.1409 8.582 60.9089 7.85C61.6769 7.118 62.6669 6.752 63.8789 6.752C65.1149 6.752 66.0929 7.094 66.8129 7.778C67.5449 8.462 67.9109 9.404 67.9109 10.604C67.9109 11.6 67.6109 12.572 67.0109 13.52C66.4229 14.456 65.7509 15.284 64.9949 16.004C64.2389 16.712 63.2729 17.54 62.0969 18.488H68.2889V19.856H59.6309V18.686ZM72.5584 13.232C71.8864 12.968 71.3704 12.584 71.0104 12.08C70.6504 11.576 70.4704 10.964 70.4704 10.244C70.4704 9.596 70.6324 9.014 70.9564 8.498C71.2804 7.97 71.7604 7.556 72.3964 7.256C73.0444 6.944 73.8244 6.788 74.7364 6.788C75.6484 6.788 76.4224 6.944 77.0584 7.256C77.7064 7.556 78.1924 7.97 78.5164 8.498C78.8524 9.014 79.0204 9.596 79.0204 10.244C79.0204 10.94 78.8344 11.552 78.4624 12.08C78.0904 12.596 77.5804 12.98 76.9324 13.232C77.6764 13.46 78.2644 13.862 78.6964 14.438C79.1404 15.002 79.3624 15.686 79.3624 16.49C79.3624 17.27 79.1704 17.954 78.7864 18.542C78.4024 19.118 77.8564 19.568 77.1484 19.892C76.4524 20.204 75.6484 20.36 74.7364 20.36C73.8244 20.36 73.0204 20.204 72.3244 19.892C71.6404 19.568 71.1064 19.118 70.7224 18.542C70.3384 17.954 70.1464 17.27 70.1464 16.49C70.1464 15.686 70.3624 14.996 70.7944 14.42C71.2264 13.844 71.8144 13.448 72.5584 13.232ZM77.4364 10.442C77.4364 9.71 77.1964 9.146 76.7164 8.75C76.2364 8.354 75.5764 8.156 74.7364 8.156C73.9084 8.156 73.2544 8.354 72.7744 8.75C72.2944 9.146 72.0544 9.716 72.0544 10.46C72.0544 11.132 72.3004 11.672 72.7924 12.08C73.2964 12.488 73.9444 12.692 74.7364 12.692C75.5404 12.692 76.1884 12.488 76.6804 12.08C77.1844 11.66 77.4364 11.114 77.4364 10.442ZM74.7364 13.952C73.8484 13.952 73.1224 14.162 72.5584 14.582C71.9944 14.99 71.7124 15.608 71.7124 16.436C71.7124 17.204 71.9824 17.822 72.5224 18.29C73.0744 18.758 73.8124 18.992 74.7364 18.992C75.6604 18.992 76.3924 18.758 76.9324 18.29C77.4724 17.822 77.7424 17.204 77.7424 16.436C77.7424 15.632 77.4664 15.02 76.9144 14.6C76.3624 14.168 75.6364 13.952 74.7364 13.952ZM89.5479 8.264L84.5439 20H82.8879L87.9639 8.426H81.0159V7.022H89.5479V8.264ZM93.74 13.232C93.068 12.968 92.552 12.584 92.192 12.08C91.832 11.576 91.652 10.964 91.652 10.244C91.652 9.596 91.814 9.014 92.138 8.498C92.462 7.97 92.942 7.556 93.578 7.256C94.226 6.944 95.006 6.788 95.918 6.788C96.83 6.788 97.604 6.944 98.24 7.256C98.888 7.556 99.374 7.97 99.698 8.498C100.034 9.014 100.202 9.596 100.202 10.244C100.202 10.94 100.016 11.552 99.644 12.08C99.272 12.596 98.762 12.98 98.114 13.232C98.858 13.46 99.446 13.862 99.878 14.438C100.322 15.002 100.544 15.686 100.544 16.49C100.544 17.27 100.352 17.954 99.968 18.542C99.584 19.118 99.038 19.568 98.33 19.892C97.634 20.204 96.83 20.36 95.918 20.36C95.006 20.36 94.202 20.204 93.506 19.892C92.822 19.568 92.288 19.118 91.904 18.542C91.52 17.954 91.328 17.27 91.328 16.49C91.328 15.686 91.544 14.996 91.976 14.42C92.408 13.844 92.996 13.448 93.74 13.232ZM98.618 10.442C98.618 9.71 98.378 9.146 97.898 8.75C97.418 8.354 96.758 8.156 95.918 8.156C95.09 8.156 94.436 8.354 93.956 8.75C93.476 9.146 93.236 9.716 93.236 10.46C93.236 11.132 93.482 11.672 93.974 12.08C94.478 12.488 95.126 12.692 95.918 12.692C96.722 12.692 97.37 12.488 97.862 12.08C98.366 11.66 98.618 11.114 98.618 10.442ZM95.918 13.952C95.03 13.952 94.304 14.162 93.74 14.582C93.176 14.99 92.894 15.608 92.894 16.436C92.894 17.204 93.164 17.822 93.704 18.29C94.256 18.758 94.994 18.992 95.918 18.992C96.842 18.992 97.574 18.758 98.114 18.29C98.654 17.822 98.924 17.204 98.924 16.436C98.924 15.632 98.648 15.02 98.096 14.6C97.544 14.168 96.818 13.952 95.918 13.952ZM104.826 16.508C104.946 17.192 105.222 17.72 105.654 18.092C106.098 18.464 106.692 18.65 107.436 18.65C108.432 18.65 109.164 18.26 109.632 17.48C110.112 16.7 110.34 15.386 110.316 13.538C110.064 14.078 109.644 14.504 109.056 14.816C108.468 15.116 107.814 15.266 107.094 15.266C106.29 15.266 105.57 15.104 104.934 14.78C104.31 14.444 103.818 13.958 103.458 13.322C103.098 12.686 102.918 11.918 102.918 11.018C102.918 9.734 103.29 8.702 104.034 7.922C104.778 7.13 105.834 6.734 107.202 6.734C108.882 6.734 110.058 7.28 110.73 8.372C111.414 9.464 111.756 11.09 111.756 13.25C111.756 14.762 111.618 16.01 111.342 16.994C111.078 17.978 110.622 18.728 109.974 19.244C109.338 19.76 108.462 20.018 107.346 20.018C106.122 20.018 105.168 19.688 104.484 19.028C103.8 18.368 103.41 17.528 103.314 16.508H104.826ZM107.364 13.88C108.168 13.88 108.828 13.634 109.344 13.142C109.86 12.638 110.118 11.96 110.118 11.108C110.118 10.208 109.866 9.482 109.362 8.93C108.858 8.378 108.15 8.102 107.238 8.102C106.398 8.102 105.726 8.366 105.222 8.894C104.73 9.422 104.484 10.118 104.484 10.982C104.484 11.858 104.73 12.56 105.222 13.088C105.714 13.616 106.428 13.88 107.364 13.88ZM121.311 10.082C121.047 8.75 120.225 8.084 118.845 8.084C117.777 8.084 116.979 8.498 116.451 9.326C115.923 10.142 115.665 11.492 115.677 13.376C115.953 12.752 116.409 12.266 117.045 11.918C117.693 11.558 118.413 11.378 119.205 11.378C120.441 11.378 121.425 11.762 122.157 12.53C122.901 13.298 123.273 14.36 123.273 15.716C123.273 16.532 123.111 17.264 122.787 17.912C122.475 18.56 121.995 19.076 121.347 19.46C120.711 19.844 119.937 20.036 119.025 20.036C117.789 20.036 116.823 19.76 116.127 19.208C115.431 18.656 114.945 17.894 114.669 16.922C114.393 15.95 114.255 14.75 114.255 13.322C114.255 8.918 115.791 6.716 118.863 6.716C120.039 6.716 120.963 7.034 121.635 7.67C122.307 8.306 122.703 9.11 122.823 10.082H121.311ZM118.863 12.764C118.347 12.764 117.861 12.872 117.405 13.088C116.949 13.292 116.577 13.61 116.289 14.042C116.013 14.462 115.875 14.978 115.875 15.59C115.875 16.502 116.139 17.246 116.667 17.822C117.195 18.386 117.951 18.668 118.935 18.668C119.775 18.668 120.441 18.41 120.933 17.894C121.437 17.366 121.689 16.658 121.689 15.77C121.689 14.834 121.449 14.102 120.969 13.574C120.489 13.034 119.787 12.764 118.863 12.764ZM133.781 8.408H127.463V12.512C127.739 12.128 128.147 11.816 128.687 11.576C129.227 11.324 129.809 11.198 130.433 11.198C131.429 11.198 132.239 11.408 132.863 11.828C133.487 12.236 133.931 12.77 134.195 13.43C134.471 14.078 134.609 14.768 134.609 15.5C134.609 16.364 134.447 17.138 134.123 17.822C133.799 18.506 133.301 19.046 132.629 19.442C131.969 19.838 131.147 20.036 130.163 20.036C128.903 20.036 127.883 19.712 127.103 19.064C126.323 18.416 125.849 17.552 125.681 16.472H127.283C127.439 17.156 127.769 17.69 128.273 18.074C128.777 18.458 129.413 18.65 130.181 18.65C131.129 18.65 131.843 18.368 132.323 17.804C132.803 17.228 133.043 16.472 133.043 15.536C133.043 14.6 132.803 13.88 132.323 13.376C131.843 12.86 131.135 12.602 130.199 12.602C129.563 12.602 129.005 12.758 128.525 13.07C128.057 13.37 127.715 13.784 127.499 14.312H125.951V6.968H133.781V8.408ZM145.084 8.408H138.766V12.512C139.042 12.128 139.45 11.816 139.99 11.576C140.53 11.324 141.112 11.198 141.736 11.198C142.732 11.198 143.542 11.408 144.166 11.828C144.79 12.236 145.234 12.77 145.498 13.43C145.774 14.078 145.912 14.768 145.912 15.5C145.912 16.364 145.75 17.138 145.426 17.822C145.102 18.506 144.604 19.046 143.932 19.442C143.272 19.838 142.45 20.036 141.466 20.036C140.206 20.036 139.186 19.712 138.406 19.064C137.626 18.416 137.152 17.552 136.984 16.472H138.586C138.742 17.156 139.072 17.69 139.576 18.074C140.08 18.458 140.716 18.65 141.484 18.65C142.432 18.65 143.146 18.368 143.626 17.804C144.106 17.228 144.346 16.472 144.346 15.536C144.346 14.6 144.106 13.88 143.626 13.376C143.146 12.86 142.438 12.602 141.502 12.602C140.866 12.602 140.308 12.758 139.828 13.07C139.36 13.37 139.018 13.784 138.802 14.312H137.254V6.968H145.084V8.408ZM156.099 8.264L151.095 20H149.439L154.515 8.426H147.567V7.022H156.099V8.264ZM157.915 13.358C157.915 11.294 158.251 9.686 158.923 8.534C159.595 7.37 160.771 6.788 162.451 6.788C164.119 6.788 165.289 7.37 165.961 8.534C166.633 9.686 166.969 11.294 166.969 13.358C166.969 15.458 166.633 17.09 165.961 18.254C165.289 19.418 164.119 20 162.451 20C160.771 20 159.595 19.418 158.923 18.254C158.251 17.09 157.915 15.458 157.915 13.358ZM165.349 13.358C165.349 12.314 165.277 11.432 165.133 10.712C165.001 9.98 164.719 9.392 164.287 8.948C163.867 8.504 163.255 8.282 162.451 8.282C161.635 8.282 161.011 8.504 160.579 8.948C160.159 9.392 159.877 9.98 159.733 10.712C159.601 11.432 159.535 12.314 159.535 13.358C159.535 14.438 159.601 15.344 159.733 16.076C159.877 16.808 160.159 17.396 160.579 17.84C161.011 18.284 161.635 18.506 162.451 18.506C163.255 18.506 163.867 18.284 164.287 17.84C164.719 17.396 165.001 16.808 165.133 16.076C165.277 15.344 165.349 14.438 165.349 13.358Z" fill="#152836"/>
<path d="M20.4054 5.4875C18.1607 3.2375 15.1714 2 11.9946 2C5.4375 2 0.101786 7.33571 0.101786 13.8929C0.101786 15.9875 0.648214 18.0339 1.6875 19.8393L0 26L6.30536 24.3446C8.04107 25.2929 9.99643 25.7911 11.9893 25.7911H11.9946C18.5464 25.7911 24 20.4554 24 13.8982C24 10.7214 22.65 7.7375 20.4054 5.4875ZM11.9946 23.7875C10.2161 23.7875 8.475 23.3107 6.95893 22.4107L6.6 22.1964L2.86071 23.1768L3.85714 19.5286L3.62143 19.1536C2.63036 17.5786 2.11071 15.7625 2.11071 13.8929C2.11071 8.44464 6.54643 4.00893 12 4.00893C14.6411 4.00893 17.1214 5.0375 18.9857 6.90714C20.85 8.77679 21.9964 11.2571 21.9911 13.8982C21.9911 19.3518 17.4429 23.7875 11.9946 23.7875ZM17.4161 16.3839C17.1214 16.2339 15.6589 15.5161 15.3857 15.4196C15.1125 15.3179 14.9143 15.2696 14.7161 15.5696C14.5179 15.8696 13.95 16.5339 13.7732 16.7375C13.6018 16.9357 13.425 16.9625 13.1304 16.8125C11.3839 15.9393 10.2375 15.2536 9.08571 13.2768C8.78036 12.7518 9.39107 12.7893 9.95893 11.6536C10.0554 11.4554 10.0071 11.2839 9.93214 11.1339C9.85714 10.9839 9.2625 9.52143 9.01607 8.92679C8.775 8.34821 8.52857 8.42857 8.34643 8.41786C8.175 8.40714 7.97679 8.40714 7.77857 8.40714C7.58036 8.40714 7.25893 8.48214 6.98571 8.77679C6.7125 9.07679 5.94643 9.79464 5.94643 11.2571C5.94643 12.7196 7.0125 14.1339 7.15714 14.3321C7.30714 14.5304 9.25179 17.5304 12.2357 18.8214C14.1214 19.6357 14.8607 19.7054 15.8036 19.5661C16.3768 19.4804 17.5607 18.8482 17.8071 18.1518C18.0536 17.4554 18.0536 16.8607 17.9786 16.7375C17.9089 16.6036 17.7107 16.5286 17.4161 16.3839Z" fill="#152836"/>
</svg>
